<svg xmlns="http://www.w3.org/2000/svg" width="330" height="201" fill="none" viewBox="0 0 330 201"><path fill="#000" d="M0 0h330v201H0z"/><path fill="#fff" d="M69.345 52.531c-.071.124.426.273 1.112.372 1.893.249 7.502 1.788 10.957 3.004 8.424 2.955 14.624 6.083 21.866 10.998 4.378 2.98 7.241 5.387 10.909 9.235 5.112 5.338 6.863 8.416 6.863 12.04.023 2.21-.568 3.625-2.106 5.14-2.698 2.631-6.532 3.748-12.945 3.748-5.253 0-11.477-.993-16.329-2.582-1.372-.447-2.153-.447-1.04 0 .307.124 1.206.497 1.987.844 2.2.969 8.59 3.079 12.164 4.022 7.241 1.912 13.654 2.731 19.523 2.532 7.17-.248 11.241-1.415 14.009-3.947 3.455-3.177 2.745-9.756-1.656-15.491-4.851-6.33-12.424-12.115-23.404-17.875-13.087-6.876-24.044-10.55-35.426-11.916-3.36-.397-6.295-.447-6.484-.124"/><path fill="#fff" d="M55.477 55.684c-5.514.869-8.708 2.309-11.051 4.965-3.053 3.476-2.864 8.143.568 13.456 1.775 2.78 3.337 4.567 6.413 7.422 9.868 9.111 27.238 18.595 40.75 22.219 7.313 1.962 15.808 2.83 22.127 2.309l2.366-.198-2.84-.571c-13.701-2.731-20.493-5.115-31-10.85-6.295-3.45-15.359-10.128-18.6-13.728-4.19-4.667-5.988-8.59-5.443-11.842 1.064-6.355 9.56-9.185 22.741-7.596 2.248.273 6.46 1.067 8.638 1.613.78.199 1.633.422 1.893.497 1.183.298-1.112-.77-4.544-2.135-6.91-2.706-13.252-4.37-20.257-5.338-2.532-.347-10.08-.471-11.76-.223M28.5 63.95c0 .125.331 1.217.734 2.434 1.561 4.692 4.59 9.533 8.874 14.175 1.278 1.39 2.13 2.458 1.87 2.383a34 34 0 0 1-1.705-.595c-.686-.224-1.301-.373-1.372-.298-.071.074-.118.744-.118 1.514 0 4.096 2.106 6.033 5.49 5.114 1.562-.422 1.42-.472 2.958 1.043 1.467 1.465 3.62 3.302 3.88 3.302.12 0 .214.099.214.198 0 .348-8.26-1.117-9.064-1.588-.165-.1.095.248.545.744 1.325 1.49 6.129 4.717 9.891 6.678 6.65 3.451 14.033 5.388 20.588 5.388 2.012 0 6.91-.522 6.91-.72 0-.1-.402-.323-.875-.497-1.349-.496-10.91-5.56-14.151-7.497-5.656-3.377-12.259-8.317-18.127-13.555-4.828-4.32-12.07-12.24-15.335-16.782-.663-.919-1.207-1.59-1.207-1.44"/><path fill="#fff" d="M74.646 67.675c.331.124 1.893.521 3.502.893 6.555 1.465 13.04 4.99 16.802 9.161 1.964 2.185 2.65 3.55 2.65 5.362 0 1.242-.07 1.39-1.04 2.359-.663.695-1.397 1.142-2.107 1.316-1.302.347-4.662.372-6.792.05-.828-.125-1.562-.175-1.633-.125-.189.199 2.461 1.365 4.378 1.912 2.532.72 8.97.794 10.981.149 5.324-1.738 5.632-5.611.804-10.353-4.827-4.741-12.305-8.564-19.973-10.203-2.508-.546-8.732-.968-7.572-.521M39.15 98.806c0 .05.26.919.567 1.936 1.964 6.48 8.377 14.772 15.074 19.464 7.147 5.039 16.944 8.068 26.103 8.068 4.496 0 10.08-1.167 13.465-2.805 1.585-.77 5.608-3.55 5.939-4.121.071-.1-.757.025-1.822.273-2.626.621-8.756.844-12.234.472-8.188-.894-17.323-4.097-24.517-8.615-3.668-2.284-8.07-5.784-11.146-8.838-.686-.695-1.254-1.142-1.254-1.018 0 1.068 1.656 4.841 3.29 7.398 1.608 2.557 1.538 2.433 1.159 2.21-3.03-1.986-6.484-4.891-8.945-7.522-2.06-2.21-5.206-6.058-5.206-6.405 0-.15-.095-.373-.237-.447-.119-.075-.237-.1-.237-.05M85.981 107.892c2.035 2.979 8.638 7.125 15.051 9.459 3.195 1.142 9.063 2.482 10.957 2.482h1.278l-1.633-.893c-1.681-.944-4.307-2.83-4.781-3.426-.236-.298.119-.348 2.509-.224 3.242.124 3.431.174 3.242.695-.237.621.379 1.862 1.112 2.235.923.521 2.083.471 3.006-.124.875-.571 1.538-1.962 1.348-2.806-.142-.546-.071-.571 2.178-.844 1.277-.174 3.076-.546 3.975-.819 1.538-.497 5.088-2.135 5.088-2.358 0-.05-.355 0-.757.124-3.479.968-16.589 1.117-23.357.273-6.224-.77-13.489-2.408-17.867-3.997-1.822-.646-1.917-.621-1.349.223"/><path fill="#fff" d="M56.803 125.295c.379 1.614 1.823 4.245 3.29 5.909 2.603 2.954 4.97 4.493 8.4 5.461 2.58.72 3.219.795 5.964.819 5.396.05 9.537-1.613 12.826-5.138.734-.77 1.302-1.44 1.278-1.49-.047-.025-1.254.149-2.674.397-7.88 1.44-17.11-.347-26.197-5.039-2.91-1.515-3.005-1.54-2.887-.919M67.192 139.669c-.047.124 0 .869.142 1.639.781 4.518 3.597 7.373 7.194 7.373 2.935 0 5.017-1.862 6.13-5.511.733-2.408.851-3.377.378-3.253-.19.05-1.041.323-1.893.596-2.864.894-7.313.621-10.815-.67-.544-.199-1.065-.273-1.136-.174M150.574 101.859v-.07q.088-.193.194-.387a.54.54 0 0 1 .369-.281h.738q.052 0 .229-.053a1 1 0 0 1 .21-.07h.176q.212 0 .387.07.194.054.387.053.14 0 .228-.07a.7.7 0 0 0 .141-.194 1 1 0 0 0 .07-.263q.018-.141.035-.246v-.985q0-.07.018-.404l.035-.738q.035-.405.053-.739t.017-.421v-.106a16 16 0 0 1-.193-1.916q-.018-.95-.018-1.951V90.75q.018-.316.018-.738.018-.422.018-.88.017-.474.017-.896.018-.42.018-.72.017-.317.017-.422 0-.21-.017-.703v-1.055q0-.563-.018-1.055v-1.037q0-.158-.017-.527 0-.37-.018-.791 0-.422-.018-.791v-.545q0-.053.018-.299t.018-.545q.017-.299.035-.545.017-.264.017-.351v-.246q0-.528-.281-.739-.264-.228-.773-.228-.563 0-1.108.07-.527.053-1.09.053-.35 0-.58-.14-.21-.159-.211-.546 0-.263.282-.422.28-.176.65-.263.387-.105.756-.141.387-.053.562-.053.563 0 1.178.053.615.035 1.178.053.035.034.211.088.194.035.228.035.018.017.053.017.018.018.07.018a.2.2 0 0 0 .071-.018.1.1 0 0 0 .052-.017l.088-.018.211-.07.211-.088q.105-.035.141-.053h.158q.14 0 .316.018h1.073a.7.7 0 0 0 .193-.018h.105l.211-.035q.106-.017.194-.035a1 1 0 0 1 .14-.018h1.565q.018 0 .193-.035a1.2 1.2 0 0 1 .211-.053q.036-.035.123-.035h.176q.457 0 .738.123.282.123.51.528v.123q0 .246-.246.334a4 4 0 0 1-.404.105q-.669.105-1.336.088a5 5 0 0 0-1.301.14 9 9 0 0 0-.229.968 5.5 5.5 0 0 0-.088.984q0 .983.036 1.934.052.931.052 1.916 0 1.195-.052 2.355a76 76 0 0 0-.036 2.356q0 1.371.036 2.777.052 1.389.052 2.812 0 1.108-.052 2.18a66 66 0 0 0-.036 2.215v.914q-.246.686-.246 1.389 0 .263.141.404t.334.228q.211.07.439.106.229.017.422.035.106.018.387.053l.58.035.598.035h.386q.194.088.422.211.246.123.246.369v.123a.25.25 0 0 1-.017.106q0 .035-.088.07a1.2 1.2 0 0 1-.211.035q-.158.018-.334.035l-.334.035a2 2 0 0 1-.228.018h-.106a.6.6 0 0 1-.158-.053.7.7 0 0 1-.176-.07h-3.023l-.897-.035a22 22 0 0 0-.879-.018 57 57 0 0 1-.738-.035 9 9 0 0 1-.492-.035 9.3 9.3 0 0 1-1.459.264q-.721.088-1.459.088a.6.6 0 0 1-.334-.088q-.141-.07-.141-.282m13.535-.421q0-.282.176-.458a1.35 1.35 0 0 1 .457-.298 3 3 0 0 1 .545-.194q.282-.087.475-.176.369-.192.597-.369.23-.193.352-.404.123-.228.176-.51.052-.3.052-.72v-2.075q0-.035.018-.158l.035-.281q.036-.16.053-.281.017-.123.017-.158v-.123q0-.036-.017-.194a4 4 0 0 0-.053-.334l-.035-.352a2 2 0 0 1-.018-.21v-.229q0-.035.018-.193l.035-.334q.036-.194.053-.352.017-.175.017-.21.018-.124.036-.458l.035-.738q.018-.387.035-.72.018-.353.018-.493a.8.8 0 0 0 .07-.281 2 2 0 0 0 .017-.264q0-.404-.228-.773a3.5 3.5 0 0 0-.527-.721 6 6 0 0 0-.686-.615q-.351-.3-.633-.528-.017 0-.053-.035a.12.12 0 0 1-.035-.088.8.8 0 0 1-.14-.14q-.088-.106-.194-.229a4 4 0 0 0-.211-.228 1.4 1.4 0 0 0-.123-.158v-.124q0-.157.088-.246.088-.105.229-.28.088-.09.105-.106a.3.3 0 0 1 .123-.018h.563q.017.018.105.035l.211.035.194.035q.105.018.123.018h1.089q.07.018.282.106.228.087.281.087.088.018.281.036l.44.035q.228.017.422.035.21.018.298.017l.44.44q.018.034.053.123a.6.6 0 0 1 .087.176q.054.088.088.175a1 1 0 0 0 .071.088l.158.194q.157.158.369.386l.439.475.37.37.017.017q.018.017.018.035l.017.018q.018.034.053.052.034 0 .123.053.088.035.088.053.035 0 .053.158a.4.4 0 0 0 .07.176q.018.035.123.175.123.141.246.317.141.158.246.299.123.14.158.176 0 .035.071.14.087.105.176.246l.175.246q.089.106.123.141l.282.281q.228.211.474.475.264.246.475.475.228.228.281.298.053.053.176.246.123.176.264.405.158.228.281.422.123.175.176.228.035.053.158.193.123.124.263.282.141.14.264.28a.8.8 0 0 0 .193.142q.036.035.141.175.123.123.246.282.123.14.229.28a1 1 0 0 0 .158.142l.088.087q.087.052.176.123.105.07.175.141l.088.088q.159.123.264.264a.46.46 0 0 0 .299.175.97.97 0 0 1 .316-.44v-1.212q0-.035-.017-.158l-.036-.264-.035-.263a2 2 0 0 1-.017-.194V91.63q0-.035-.018-.176a2 2 0 0 0-.053-.281 7 7 0 0 0-.035-.281 2 2 0 0 1-.017-.141v-.176q0-.316.052-.597.07-.3.071-.58 0-.353-.035-.704a4.4 4.4 0 0 0-.088-.685q-.036-.175-.246-.387-.211-.228-.282-.264-.175-.123-.597-.193-.405-.07-.844-.176a3.4 3.4 0 0 1-.756-.281q-.316-.175-.316-.51 0-.193.123-.316a.6.6 0 0 1 .316-.176q.07-.017.211-.035a2.572 2.572 0 0 1 .58-.07 2 2 0 0 1 .176-.018.8.8 0 0 1 .176.035.6.6 0 0 1 .193.088h2.83l.211-.123h2.496q.053 0 .123.14.089.141.123.176v.334a.85.85 0 0 1-.263.282 4 4 0 0 1-.37.193 5 5 0 0 1-.386.123q-.194.052-.317.088h-.527q-.034 0-.141.088a2 2 0 0 1-.175.105q-.054.053-.247.194a2 2 0 0 0-.21.158.63.63 0 0 0-.247.316 5 5 0 0 0-.07.457q0 .123-.017.457-.018.317-.053.686l-.035.685q-.018.317-.018.44 0 .053-.018.193t-.052.317l-.035.316a2 2 0 0 0-.018.193v3.059q0 .053-.018.193l-.035.317q0 .157-.017.316a2 2 0 0 0-.018.176v2.514a.2.2 0 0 1 .053.105.3.3 0 0 1 .035.106.8.8 0 0 1-.053.175 1 1 0 0 0-.035.141v.37q0 .368.035.737.053.352.053.756v.651a.8.8 0 0 1-.246.474.67.67 0 0 1-.492.211 1.17 1.17 0 0 1-.739-.263q-.316-.264-.615-.51a.8.8 0 0 0-.123-.158l-.105-.141a1 1 0 0 0-.071-.141 25 25 0 0 0-1.177-1.494 37 37 0 0 0-1.231-1.441q-.632-.72-1.283-1.424-.633-.72-1.23-1.459a2 2 0 0 1-.141-.106l-.106-.105a3.7 3.7 0 0 1-.703-.72 18 18 0 0 0-.615-.844.5.5 0 0 1-.123-.088 4 4 0 0 0-.211-.194 3 3 0 0 0-.211-.193 1 1 0 0 1-.105-.14q0-.035-.106-.23-.105-.192-.14-.21 0-.053-.106-.158a2.4 2.4 0 0 0-.246-.246 2.4 2.4 0 0 0-.246-.246.8.8 0 0 0-.141-.124.5.5 0 0 1-.052-.123.5.5 0 0 0-.053-.105 7 7 0 0 0-.229-.211 3 3 0 0 1-.228-.246q-.018 0-.053.053-.035.052-.035.07-.036.07-.123.281-.07.211-.106.281v2.092q0 .492.018.95.018.438.105 1.001.018.317.088.668.088.335.106.668v1.53q0 .07.017.263.018.175.036.387.017.21.035.404.017.194.035.282.035.351.14.527.124.176.422.422.123.14.352.14.088 0 .193-.017t.194-.018q.157.036.334.123.193.071.334.211.14.123.228.282.105.157.106.334a.54.54 0 0 1-.211.457.82.82 0 0 1-.493.14h-.175q-.036 0-.176-.017a2 2 0 0 0-.281-.018q-.141-.017-.264-.035a2 2 0 0 0-.141-.018q-.07 0-.298.053a4 4 0 0 1-.264.035h-1.213q-.088 0-.404.035t-.686.071q-.369.035-.685.07a6 6 0 0 0-.405.053h-.14q-.14 0-.334-.071a1.7 1.7 0 0 1-.352-.193 1.4 1.4 0 0 1-.281-.246.57.57 0 0 1-.106-.316m21.006.562a1.1 1.1 0 0 1-.474-.105q-.211-.124-.211-.405 0-.176.14-.299a1.6 1.6 0 0 1 .369-.211q.212-.087.422-.123.211-.052.317-.07.052-.017.176-.035l.281-.035q.141-.018.246-.035a2 2 0 0 1 .158-.018.9.9 0 0 0 .316-.352q.107-.21.141-.439.053-.246.053-.492.018-.246.053-.457 0-.018.052-.158.053-.141.053-.159v-1.335q0-.018-.053-.159a1 1 0 0 1-.052-.158q0-.035.052-.158a.8.8 0 0 0 .053-.176v-.439a1 1 0 0 0-.018-.176q0-.105-.087-.14v-3.78q.087-.088.087-.176.018-.105.018-.21v-.722a1 1 0 0 0-.053-.14.8.8 0 0 1-.052-.176v-1.53q0-.052-.018-.193a4 4 0 0 0-.053-.316 10 10 0 0 0-.035-.316 2 2 0 0 1-.017-.194q0-.017.017-.21.018-.195.018-.352 0-.176-.035-.194-.089-.263-.422-.369a6 6 0 0 0-.721-.175 4.4 4.4 0 0 1-.686-.211q-.298-.124-.298-.458 0-.316.263-.369a2.2 2.2 0 0 1 .563-.07h.386q.16 0 .299.018a.53.53 0 0 1 .282.088h3.638q.035 0 .158.07a.8.8 0 0 0 .176.053h.229q.034 0 .211-.053a1 1 0 0 1 .211-.07h1.476q.018 0 .246-.053.229-.053.299-.053h1.758q.018 0 .246.053t.316.053h2.496a.59.59 0 0 1 .422.404q.123.315.141.58.017.141.035.51.018.37.035.773l.035.774q.018.351.018.474a1.7 1.7 0 0 1-.316.51.7.7 0 0 1-.545.264h-.018q-.299-.388-.615-.844a6.6 6.6 0 0 1-.492-.932l-.194-.457a1.9 1.9 0 0 0-.211-.404 1.4 1.4 0 0 0-.316-.316 1.4 1.4 0 0 0-.475-.229h-3.638a3 3 0 0 1-.229-.018l-.351-.035a5 5 0 0 0-.545-.07q-.194 0-.405.193-.193.176-.281.37v.615q0 .492-.017 1.002-.018.492-.071.914 0 .035-.052.21a1.3 1.3 0 0 1-.053.212v.351q0 .018.017.123.018.088.036.194l.035.21q.017.088.017.124v.527q0 .387.071.72.087.317.474.405.106.017.352.035l.545.035q.28 0 .527.018h.809q.035 0 .193-.018.176-.035.246-.07h.545q.211-.053.281-.475t.141-.896a3.3 3.3 0 0 1 .264-.862q.192-.369.632-.316.264.07.457.281a.63.63 0 0 1 .194.457v.282q0 .034-.018.193l-.035.352-.035.334a2 2 0 0 0-.018.21v2.303q0 .036-.035.246a5 5 0 0 1-.07.457l-.071.492a3 3 0 0 0-.035.37 3.5 3.5 0 0 1-.14.457q-.07.21-.334.21a.7.7 0 0 1-.387-.105 1 1 0 0 1-.246-.264 1.6 1.6 0 0 1-.141-.351 5 5 0 0 1-.088-.387 2 2 0 0 0-.017-.176l-.035-.316-.036-.317v-.175a.6.6 0 0 0-.246-.352 1.4 1.4 0 0 0-.439-.21 1.7 1.7 0 0 0-.492-.106 3 3 0 0 0-.422-.035 4.8 4.8 0 0 0-1.02.123q-.545.105-1.037.105-.317.194-.386.633a7 7 0 0 0-.053.844v.474q0 .3.07.545t.07.545a.9.9 0 0 1-.07.352.7.7 0 0 0-.07.299v.175q0 .105.035.405.035.28.053.597.035.316.07.598.035.28.035.387a8 8 0 0 1 .229.246q.175.158.228.193l.071.035.07.035a1 1 0 0 0 .088.053h1.564q.036 0 .229.123.21.106.299.194a.36.36 0 0 1 .105.193 1 1 0 0 1 .018.158q0 .387-.247.457a1.6 1.6 0 0 1-.544.088h-.774q-.07 0-.351-.018-.264-.017-.581-.052l-.597-.035a7 7 0 0 0-.334-.018zm15.574-7.822q0-.316.071-.809.07-.492.193-1.002.123-.526.281-1.002.177-.475.352-.79.193-.352.439-.598.264-.264.563-.616.176-.194.264-.474a1.24 1.24 0 0 1 .263-.475 3 3 0 0 1 .229-.246 3 3 0 0 1 .246-.228q.035-.018.14-.053a1 1 0 0 1 .159-.035q.44-.229.72-.545.3-.334.721-.58a4.7 4.7 0 0 1 1.635-.528 13 13 0 0 1 1.74-.123q.212 0 .387.14a1.4 1.4 0 0 0 .562.23q.123.017.264.034.158 0 .281.018a.7.7 0 0 1 .176.035q.035 0 .158.053.123.035.176.053.035.016.158.088.123.053.264.14.14.07.264.14.14.072.193.089.228.088.545.175.333.071.545.229a.4.4 0 0 1 .105.105q.088.09.176.194.105.088.176.176.088.07.105.088t.088.07a.7.7 0 0 1 .176.105l.176.106q.087.052.123.07.527.422.896 1.055.387.633.615 1.37.247.722.352 1.477.123.74.123 1.39v.491a4 4 0 0 0-.053.493l-.035.597q-.018.3-.035.528v.246l-.088.28q-.053.213-.14.475-.089.264-.194.528a7 7 0 0 1-.14.369l-.071.14-.088.212-.105.21q-.053.088-.053.124a.5.5 0 0 1-.07.158.5.5 0 0 0-.053.175 9 9 0 0 1-.211.264q-.158.175-.334.387l-.334.404q-.158.194-.211.264a6 6 0 0 0-.176.123q-.123.088-.158.088-.053.088-.14.088a1.3 1.3 0 0 1-.211.193 7 7 0 0 1-.299.246l-.299.229q-.123.105-.141.123a.8.8 0 0 1-.334.14q-.123 0-.351.071a.4.4 0 0 1-.088.052l-.141.071-.14.07a.3.3 0 0 1-.071.018 1 1 0 0 0-.123.035q-.105.017-.246.035a2 2 0 0 0-.246.053 1 1 0 0 1-.14.017 1 1 0 0 0-.282.088q-.21.088-.263.123h-2.584a5 5 0 0 1-.739-.088.3.3 0 0 1-.088-.035l-.175-.088a3 3 0 0 0-.159-.088q-.07-.052-.087-.052h-.106l-.193-.036-.176-.035a1 1 0 0 0-.088-.017q-.035 0-.176-.106-.14-.105-.175-.105a.8.8 0 0 0-.211-.106 5.709 5.709 0 0 1-1.055-.597 7 7 0 0 1-.774-.703 9 9 0 0 1-.65-.81 4.2 4.2 0 0 1-.475-.86 1.7 1.7 0 0 1-.087-.3 3 3 0 0 1-.036-.263 2 2 0 0 1-.105-.158q-.089-.159-.123-.194a5.4 5.4 0 0 1-.299-.685 9 9 0 0 1-.246-.826q-.105-.423-.176-.826a6 6 0 0 1-.053-.756m3.2.44v1.036q0 .14.07.44.07.299.158.633.088.316.176.597.088.282.158.387.018.052.106.21.105.142.211.317.123.159.211.317.105.14.123.175.017.035.07.176.07.123.14.264.07.14.124.281a1 1 0 0 0 .105.158q0 .018.07.088l.141.14a.8.8 0 0 1 .141.141q.07.053.087.071.141.158.317.457.175.28.369.404.018.036.193.088.193.035.246.053.352.141.668.228.334.07.739.071.316 0 .527-.071.228-.087.404-.228.194-.14.369-.317.194-.193.458-.386.263-.194.369-.44.123-.264.299-.51a5 5 0 0 1 .351-.51 7 7 0 0 0 .387-.492.6.6 0 0 0 .088-.175.3.3 0 0 0 .035-.123.6.6 0 0 0 .017-.159q.018-.087.071-.228.017 0 .07-.105.07-.124.141-.282l.14-.316a7 7 0 0 1 .123-.264 1 1 0 0 0 .035-.088l.036-.07a2.223 2.223 0 0 0 .088-.37l.07-.421q.035-.21.053-.37.035-.175.035-.21v-1.16q0-.914-.088-1.864a6.5 6.5 0 0 0-.44-1.828q-.299-.667-.632-1.248a3.2 3.2 0 0 0-.932-1.054l-.229-.106a7 7 0 0 0-.421-.21 5 5 0 0 0-.405-.212 2 2 0 0 0-.246-.123 1 1 0 0 0-.105-.07 1 1 0 0 0-.176-.106 1 1 0 0 0-.176-.087.4.4 0 0 0-.105-.053q0-.035-.106-.035h-.123q-.686 0-1.265.298a3.9 3.9 0 0 0-1.02.739q-.457.456-.826 1.037-.353.563-.615 1.142a9.1 9.1 0 0 0-.668 2.127 12 12 0 0 0-.211 2.215m14.871 4.253v-.035q0-.088.017-.246l.035-.317q.018-.158.036-.28.017-.142.017-.159a7 7 0 0 1 .141-.668q.07-.193.176-.316a.37.37 0 0 1 .281-.141.5.5 0 0 1 .158.018q.07.017.141.14.07.194.088.422.034.21.123.422 0 .034.035.123a.5.5 0 0 1 .07.123q.194.369.387.844.21.457.457.896.264.44.58.809.334.351.773.492.018.035.194.035.158 0 .334-.017.193-.018.228-.018a.8.8 0 0 1 .194.07 1 1 0 0 0 .246.053h.211q.544-.105.984-.299a2.6 2.6 0 0 0 .773-.492q.316-.3.493-.72a2.8 2.8 0 0 0 .175-1.038v-.527a3 3 0 0 1-.105-.264q-.07-.21-.158-.44a8 8 0 0 0-.176-.421 1.1 1.1 0 0 0-.123-.264 1.7 1.7 0 0 0-.387-.474 2.4 2.4 0 0 0-.492-.352 5 5 0 0 0-.545-.281 10 10 0 0 0-.527-.229.24.24 0 0 1-.141-.052.2.2 0 0 1-.088-.053 1 1 0 0 0-.176-.123q-.122-.088-.158-.088-.07 0-.299-.035-.228-.053-.263-.088a6 6 0 0 0-.229-.106l-.316-.158a8 8 0 0 0-.334-.158 16.095 16.095 0 0 0-.51-.334l-.387-.246-.334-.211a.8.8 0 0 0-.158-.088 1.8 1.8 0 0 1-.474-.562 6 6 0 0 1-.317-.65 7 7 0 0 0-.088-.247l-.105-.281a1.4 1.4 0 0 0-.106-.229 1 1 0 0 1-.035-.123v-1.95q0-.036.035-.16.053-.122.088-.192.07-.124.176-.37l.246-.492q.123-.246.211-.44a1.3 1.3 0 0 1 .141-.228 1.1 1.1 0 0 1 .281-.334q.175-.123.351-.228.194-.105.352-.211a1.2 1.2 0 0 0 .299-.299q.07-.018.246-.053.175-.035.369-.07.193-.035.352-.07.175-.035.246-.035a.6.6 0 0 0 .158-.053.6.6 0 0 1 .176-.07h.562a1 1 0 0 1 .088-.036l.07-.035a.2.2 0 0 1 .071-.018h.176q.562 0 .931.106.387.105.844.334.035 0 .158.035.14.018.176.053.105.053.193.14.088.09.176.194.088.087.176.158.088.07.211.07a.4.4 0 0 0 .228-.07q.106-.07.194-.158.105-.105.193-.176a.43.43 0 0 1 .246-.07q.422 0 .563.44v1.212q-.035.58-.071 1.213-.035.615-.263 1.178-.036.123-.088.14a.5.5 0 0 1-.141.018q-.157 0-.387-.246a5 5 0 0 1-.439-.598 7 7 0 0 1-.369-.703 2.5 2.5 0 0 1-.194-.562v-.194a1.06 1.06 0 0 0-.211-.51 1.5 1.5 0 0 0-.369-.351 2.5 2.5 0 0 0-.474-.246 7 7 0 0 0-.51-.229q-.035 0-.211-.105a1 1 0 0 0-.228-.123.4.4 0 0 1-.124.053 2 2 0 0 1-.21.052q-.493.245-.915.44a3 3 0 0 0-.738.474 2 2 0 0 0-.474.703q-.176.404-.176 1.055 0 .44.193.738.194.282.492.493.3.193.651.369.351.157.668.334.351.228.685.457.334.21.703.316.194.052.44.123.246.07.492.158t.475.194q.228.105.369.21a4.7 4.7 0 0 1 1.459 1.67q.527.985.527 2.163 0 .667-.228 1.353a7.4 7.4 0 0 1-.581 1.283q-.896 1.213-2.232 1.741a7.6 7.6 0 0 1-2.812.527h-.176a.8.8 0 0 1-.176-.053.6.6 0 0 0-.141-.07 5 5 0 0 1-.281-.07l-.387-.106a6 6 0 0 0-.369-.088.9.9 0 0 0-.211-.052 27 27 0 0 0-.791-.229 2.2 2.2 0 0 1-.72-.422 1 1 0 0 0-.141-.105q-.106-.07-.211-.159a3 3 0 0 1-.193-.175.45.45 0 0 1-.106-.211q0-.018-.017-.176a13 13 0 0 1-.036-.37l-.035-.421a5 5 0 0 1-.017-.37zm15.802 2.531q0-.193.211-.404.23-.211.457-.246l1.776-.229q.088 0 .228-.193t.211-.334V99.1q0-.774-.052-1.512a33 33 0 0 1-.036-1.547v-.246q.07-.861.071-1.758.017-.897.017-1.81v-2.092a9 9 0 0 1-.052-.686q0-.421-.018-.808l-.035-.932-.123-.088-.229-.017a17 17 0 0 0-.474-.036l-.58-.035q-.282-.017-.457-.035h-.563q-.088 0-.299.018-.193 0-.422.017a5 5 0 0 0-.422.053q-.21.017-.281.035a.4.4 0 0 0-.123.035.2.2 0 0 0-.105.053q-.053.035-.194.14a1 1 0 0 1-.14.088q-.018.035-.088.141-.053.106-.141.246l-.14.246-.071.14a1.3 1.3 0 0 0-.158.23l-.158.21q-.052.053-.141.194-.087.14-.193.299-.105.158-.193.298-.088.141-.124.194a.6.6 0 0 1-.228.105h-.193q-.14 0-.229-.017-.088-.036-.123-.176v-.861q0-.81.176-1.547a9.7 9.7 0 0 0 .264-1.565q.035-.14.158-.176a.6.6 0 0 1 .228-.052h.387q.018 0 .088.123.087.105.123.105.07.036.264.07.192.036.281.036h2.426q.228.087.298.105h.475q.088 0 .457-.017l.791-.036q.422-.017.791-.035.387-.017.475-.017h6.345q.036 0 .141-.018.105-.035.229-.07a5 5 0 0 0 .228-.07q.123-.035.176-.053a.8.8 0 0 0 .14-.14q.07-.09.159-.177a1 1 0 0 1 .193-.175.43.43 0 0 1 .246-.07q.176 0 .299.105t.193.263q.089.141.123.317.054.175.053.316.018.088.035.246.018.141.035.3.018.157.036.28t.017.141v2.548a1.2 1.2 0 0 1-.14.247q-.07.07-.282.07h-.14a1.6 1.6 0 0 1-.211-.193 8 8 0 0 0-.229-.246 8 8 0 0 1-.14-.229q-.106-.175-.229-.369a6 6 0 0 0-.246-.387 1.4 1.4 0 0 0-.158-.228 1.5 1.5 0 0 0-.158-.176 5.369 5.369 0 0 0-.528-.527l-.176-.176a2.4 2.4 0 0 1-.421-.123 1.3 1.3 0 0 0-.458-.088h-.123a2 2 0 0 0-.21.07 1.6 1.6 0 0 1-.229.053h-.123a1.4 1.4 0 0 0-.246-.053 5 5 0 0 0-.457-.087 3 3 0 0 0-.44-.07 2 2 0 0 0-.263-.036h-.211q-.51 0-.668.352a1.8 1.8 0 0 0-.158.773q0 .316.017.633.035.298.035.545 0 .035-.017.14a3 3 0 0 0-.035.211l-.036.211a1 1 0 0 0-.017.123q0 .089.017.422.018.317.036.703.017.387.035.739.017.334.017.439v3.252q.018.228.035.791.036.562.071 1.195.035.632.053 1.196.035.544.052.773.123.228.369.352.264.123.563.211l.633.14q.316.053.58.158.263.088.422.246a.54.54 0 0 1 .175.422.55.55 0 0 1-.158.405 1 1 0 0 1-.386.211 2 2 0 0 1-.457.123 3 3 0 0 1-.405.035.9.9 0 0 1-.228-.071 1 1 0 0 0-.229-.052 13 13 0 0 0-.65-.088h-1.758a1 1 0 0 0-.158-.053.4.4 0 0 0-.141-.053q-.018 0-.123.018t-.228.035l-.247.035q-.123.018-.175.018a5 5 0 0 1-.967.14q-.44.035-1.002.071-.053 0-.193.017a9 9 0 0 1-.282.036 2.5 2.5 0 0 1-.422.07.4.4 0 0 1-.263-.106 1.3 1.3 0 0 1-.211-.228 2 2 0 0 1-.141-.299.9.9 0 0 1-.053-.264m14.538-7.224q0-.316.07-.809.07-.492.193-1.002.123-.526.282-1.002.176-.475.351-.79.193-.352.44-.598.263-.264.562-.616.175-.194.264-.474a1.24 1.24 0 0 1 .263-.475 3 3 0 0 1 .229-.246 3 3 0 0 1 .246-.228 1.2 1.2 0 0 1 .299-.088 2.5 2.5 0 0 0 .721-.545q.298-.334.72-.58a4.7 4.7 0 0 1 1.635-.528 13 13 0 0 1 1.74-.123q.212 0 .387.14a1.4 1.4 0 0 0 .562.23q.123.017.264.034a2 2 0 0 1 .281.018.7.7 0 0 1 .176.035q.036 0 .158.053.123.035.176.053.036.016.158.088.123.053.264.14.141.07.264.14.14.072.193.089.228.088.545.175.334.071.545.229a.4.4 0 0 1 .105.105q.089.09.176.194.105.088.176.176.089.07.105.088.018.017.088.07a.7.7 0 0 1 .176.105l.176.106q.087.052.123.07.527.422.896 1.055.387.633.616 1.37.246.722.351 1.477.123.74.123 1.39v.491a4 4 0 0 0-.053.493l-.035.597q-.017.3-.035.528v.246l-.088.28q-.053.213-.14.475a9 9 0 0 1-.194.528 7 7 0 0 1-.14.369l-.071.14a6 6 0 0 1-.088.212l-.105.21q-.053.088-.053.124a.5.5 0 0 1-.07.158.5.5 0 0 0-.053.175 9 9 0 0 1-.211.264q-.158.175-.334.387l-.334.404a13 13 0 0 0-.211.264l-.175.123q-.123.088-.159.088-.053.088-.14.088a1.2 1.2 0 0 1-.211.193 7 7 0 0 1-.299.246q-.158.123-.299.229-.123.105-.14.123a.84.84 0 0 1-.334.14q-.124 0-.352.071a.4.4 0 0 1-.088.052l-.141.071-.14.07a.3.3 0 0 1-.07.018 1 1 0 0 0-.124.035q-.105.017-.246.035a2 2 0 0 0-.246.053 1 1 0 0 1-.14.017 1 1 0 0 0-.282.088q-.21.088-.263.123h-2.584a5 5 0 0 1-.739-.088.3.3 0 0 1-.087-.035l-.176-.088a3 3 0 0 0-.158-.088q-.071-.052-.088-.052h-.106l-.193-.036-.176-.035a1 1 0 0 0-.088-.017q-.035 0-.176-.106-.14-.105-.175-.105a.8.8 0 0 0-.211-.106 5.709 5.709 0 0 1-1.055-.597 7 7 0 0 1-.773-.703 8 8 0 0 1-.651-.81 4.2 4.2 0 0 1-.474-.86 1.6 1.6 0 0 1-.088-.3 3 3 0 0 1-.035-.263 2 2 0 0 1-.106-.158 1 1 0 0 0-.123-.194 6 6 0 0 1-.299-.685 9 9 0 0 1-.246-.826q-.105-.423-.176-.826a6 6 0 0 1-.052-.756m3.199.44v1.036q0 .14.07.44.07.299.158.633.089.316.176.597.088.282.158.387.018.052.106.21.105.142.211.317.123.159.211.317.105.14.123.175.017.035.07.176.07.123.141.264.07.14.123.281a1 1 0 0 0 .105.158q0 .018.07.088l.141.14a.8.8 0 0 1 .141.141q.07.053.088.071.14.158.316.457.175.28.369.404.017.036.194.088.192.035.246.053.351.141.668.228.333.07.738.071.317 0 .527-.071.229-.087.405-.228.192-.14.369-.317a4 4 0 0 1 .457-.386q.263-.194.369-.44.122-.264.299-.51a5 5 0 0 1 .351-.51 7 7 0 0 0 .387-.492.6.6 0 0 0 .088-.175.3.3 0 0 0 .035-.123.6.6 0 0 0 .018-.159q.017-.087.07-.228.018 0 .07-.105.07-.124.141-.282l.14-.316a7 7 0 0 1 .123-.264 1 1 0 0 0 .036-.088l.035-.07a.1.1 0 0 0 .017-.053q.036-.106.071-.316l.07-.422q.035-.21.053-.37.035-.175.035-.21v-1.16q0-.914-.088-1.864a6.5 6.5 0 0 0-.439-1.828q-.3-.667-.633-1.248a3.2 3.2 0 0 0-.932-1.054q-.035-.018-.228-.106-.194-.105-.422-.21a5 5 0 0 0-.405-.212 2 2 0 0 0-.246-.123 1 1 0 0 0-.105-.07 1 1 0 0 0-.176-.106 1 1 0 0 0-.176-.087.4.4 0 0 0-.105-.053q0-.035-.106-.035h-.123q-.686 0-1.265.298a3.9 3.9 0 0 0-1.02.739q-.457.456-.826 1.037a10 10 0 0 0-.615 1.142 9.1 9.1 0 0 0-.668 2.127 12 12 0 0 0-.211 2.215m14.502 7.03q0-.386.316-.492a3 3 0 0 1 .703-.176 4.6 4.6 0 0 0 .756-.193q.352-.123.422-.527 0-.123.018-.422l.035-.633q.017-.335.035-.615.018-.3.018-.422v-.598q.017-.544.017-1.248v-1.424q.018-.738.018-1.16 0-.246-.018-.879v-1.353a52 52 0 0 0-.017-1.354v-.879q0-.07-.018-.246l-.035-.404-.035-.387a4 4 0 0 1-.018-.263.59.59 0 0 0-.334-.457 2.7 2.7 0 0 0-.633-.264 25 25 0 0 1-.72-.229 1.3 1.3 0 0 1-.598-.386.3.3 0 0 1-.088-.088.5.5 0 0 1-.035-.106v-.087q0-.159.105-.264a.75.75 0 0 1 .264-.194q.158-.07.334-.105.176-.036.316-.035h.088q.493.087.967.158.474.07 1.002.07h.211q.421-.017 1.107-.035l1.389-.035q.686-.018 1.195-.018.528-.017.598-.017.088 0 .281-.018l.405-.035q.21-.018.386-.035t.246-.035a1 1 0 0 0 .088-.053q.106-.07.158-.07.071-.018.229-.053t.211-.035q.018.035.193.176.175.123.246.158.264.14.633.193t.633.246q.351.23.65.598.317.37.545.809.23.438.352.914.14.474.14.896 0 .492-.035.932-.034.44-.088 1.02-.123.07-.246.28-.105.194-.211.44l-.211.457q-.105.228-.21.334a4 4 0 0 1-.405.334l-.281.21q-.14.089-.211.124a.8.8 0 0 1-.211.105l-.351.159a8 8 0 0 0-.334.175 1 1 0 0 0-.159.088.7.7 0 0 1-.123.088 2 2 0 0 0-.158.088 1 1 0 0 0-.158.123q-.07.052-.07.123 0 .018.07.07.07.037.158.106a.8.8 0 0 1 .158.123q.089.053.123.088 0 .017.018.088.035.052.07.123a.7.7 0 0 1 .053.14.3.3 0 0 1 .035.088l.211.211q.299.229.598.545t.527.633q.018.036.088.229.089.193.105.21l.106.159.141.21q.069.105.123.212.07.087.087.105l.176.176q.141.14.299.316.176.158.316.299.159.14.211.176 0 .034.053.123.052.07.106.176l.105.175q.053.071.053.088.14.194.545.492.421.3.844.616.438.298.773.58.351.263.352.404a.4.4 0 0 1-.106.299.7.7 0 0 1-.246.158 1.2 1.2 0 0 1-.316.07 3 3 0 0 1-.299.018q-.229 0-.405-.018a1.5 1.5 0 0 1-.404-.105h-2.267q-.475-.017-.739-.158a1.7 1.7 0 0 1-.457-.404 5 5 0 0 1-.334-.545 3.5 3.5 0 0 0-.369-.633 1.1 1.1 0 0 0-.158-.229 5 5 0 0 0-.316-.387 6 6 0 0 0-.299-.369 1.2 1.2 0 0 1-.159-.228q-.053-.036-.14-.246l-.106-.317a.6.6 0 0 1-.088-.158 2 2 0 0 1-.035-.158 2 2 0 0 1-.211-.193l-.298-.3a7 7 0 0 0-.282-.298 2 2 0 0 1-.175-.229q-.036-.017-.124-.193a4 4 0 0 1-.105-.246q-.018 0-.105-.088a9 9 0 0 0-.176-.21 2 2 0 0 0-.194-.23 7 7 0 0 1-.175-.21l-.246-.282a1.8 1.8 0 0 0-.282-.316 1.5 1.5 0 0 0-.299-.264.6.6 0 0 0-.334-.105h-.14a9 9 0 0 0-.035.58l-.035.897-.036.896q-.017.422-.017.58v.914q.017.422.053.826l.07.967.193.246q.053.018.211.035.159.018.334.035.193 0 .352.018h.211l.263.088q.176.052.317.141a.9.9 0 0 1 .263.211q.123.105.123.246 0 .246-.316.316-.105.017-.352.035-.246.036-.527.07a31 31 0 0 0-.879.124h-.088l-.246-.124a.8.8 0 0 1-.193-.105h-2.004a1 1 0 0 0-.158.035 1 1 0 0 0-.176.088 2 2 0 0 1-.158.106q-.123.087-.158.087t-.176-.105a.6.6 0 0 0-.176-.088h-.07a1.04 1.04 0 0 0-.475.106.83.83 0 0 1-.457.123.3.3 0 0 1-.105-.018.2.2 0 0 0-.071-.018.7.7 0 0 1-.246-.07 1.42 1.42 0 0 1-.545-.334.4.4 0 0 1-.105-.264m5.291-7.945q.14.352.422.457.299.105.632.106.651 0 1.196-.352.562-.37.967-.896.404-.546.632-1.178a3.7 3.7 0 0 0 .229-1.23q0-.476-.088-.967a2.2 2.2 0 0 0-.352-.932 6 6 0 0 0-.21-.193l-.299-.3a3 3 0 0 0-.317-.28 2 2 0 0 0-.193-.176q0-.018-.088-.053a2 2 0 0 0-.158-.07.6.6 0 0 0-.176-.07.4.4 0 0 0-.123-.036 1 1 0 0 0-.105-.07q-.07-.052-.159-.106a.7.7 0 0 0-.175-.105.3.3 0 0 0-.123-.053h-.176q-.65 0-.985.282-.317.281-.351.913a2.6 2.6 0 0 0-.035.405q-.018.333-.036.773l-.035.88q-.017.438-.017.702v.334q0 .105.017.44.018.315.035.668l.036.685q.017.317.035.422m25.031 7.981q0-.211.229-.317.228-.123.369-.193.316-.089.527-.158.211-.07.475-.071.175 0 .439.053a.6.6 0 0 0 .264-.246 1.7 1.7 0 0 0 .158-.404 2.7 2.7 0 0 0 .141-.791q.087-1.072.087-2.11t.036-2.091q0-.054.017-.229.018-.194.018-.387.017-.211.035-.386.018-.177.018-.211 0-.053-.018-.176l-.035-.281q0-.159-.018-.282a2 2 0 0 1-.017-.14v-1.248q0-.106-.071-.352t-.246-.299q-.14-.053-.351.106a3 3 0 0 0-.387.386q-.176.211-.316.44-.141.21-.194.281a8 8 0 0 1-.176.316q-.14.23-.316.51-.158.282-.316.528a5 5 0 0 1-.194.299 3 3 0 0 0-.123.228q-.087.176-.088.246a4 4 0 0 0-.123.158 7 7 0 0 1-.211.317 6 6 0 0 1-.351.474q0 .071-.035.334-.036.264-.071.334a2.2 2.2 0 0 1-.422.791 4.5 4.5 0 0 0-.474.774.4.4 0 0 1-.053.14q-.035.106-.088.246l-.105.246-.071.141q-.017.053-.087.194l-.124.28a5 5 0 0 1-.14.264l-.07.159a.7.7 0 0 0-.071.158.4.4 0 0 1-.07.158 3 3 0 0 1-.106.422 5 5 0 0 1-.228.562 2 2 0 0 1-.299.493q-.158.21-.351.211-.106 0-.247-.141a2 2 0 0 1-.193-.246.3.3 0 0 1-.088-.176q-.299-.685-.562-1.389-.246-.72-.563-1.388a1 1 0 0 0-.123-.159q-.105-.14-.105-.175a2 2 0 0 0-.071-.123l-.105-.211a3 3 0 0 0-.106-.194.4.4 0 0 0-.052-.105 43 43 0 0 1-.51-1.319 5.4 5.4 0 0 0-.598-1.23 23 23 0 0 0-.58-.896 26 26 0 0 1-.527-.897 1 1 0 0 1-.088-.14l-.123-.282-.141-.316a1.5 1.5 0 0 1-.088-.281.5.5 0 0 1-.052-.141 1 1 0 0 0-.053-.176q0-.035-.053-.105a.4.4 0 0 0-.07-.106 5 5 0 0 0-.123-.193 4 4 0 0 0-.141-.229 3 3 0 0 0-.158-.246h-.352a2 2 0 0 0-.052.246 1.3 1.3 0 0 0-.053.229q0 .106-.018.193-.14 1.248-.193 2.514-.035 1.248-.035 2.514v3.919l.123.211q.07.106.158.211a3 3 0 0 0 .211.194q.106.07.211.07h1.213q.228 0 .439.193.211.194.211.422v.123a.6.6 0 0 1-.158.176q-.123.088-.158.088h-2.25a1 1 0 0 1-.246.105 1.3 1.3 0 0 1-.264.018h-.264a24 24 0 0 0-.492-.053l-.756-.035-.773-.035h-.475a1.5 1.5 0 0 1-.263-.158 3 3 0 0 1-.194-.158l-.105-.123a.33.33 0 0 1 .088-.123q.07-.089.158-.176.105-.089.176-.158a2 2 0 0 1 .14-.106.2.2 0 0 1 .071-.07q.07-.053.105-.053a.5.5 0 0 1 .176-.018l.281-.035q.158-.017.281-.017.141-.018.176-.018.106-.052.229-.105.14-.07.263-.141a1 1 0 0 0 .229-.193.42.42 0 0 0 .123-.246 2 2 0 0 0 .105-.352l.106-.492q.07-.264.105-.457.053-.21.071-.264 0-.07-.018-.369v-.791q0-.105.018-.123 0-.07.017-.264.036-.21.053-.422.035-.211.07-.386.036-.194.035-.264v-4.113q.089-.176.123-.282a.7.7 0 0 0 .036-.21q0-.09-.018-.194a1.5 1.5 0 0 1-.018-.246v-.176q0-.053.053-.263.07-.229.088-.3V89.01a1.4 1.4 0 0 1 .123-.44v-.035q0-.404-.211-.668a1.9 1.9 0 0 0-.527-.474 3 3 0 0 0-.668-.352l-.668-.299a3 3 0 0 1-.51-.299.53.53 0 0 1-.211-.421q0-.195.194-.247.21-.052.351-.052h3.551q.457 0 .932.158.474.157.72.615.018.035.053.176.053.142.105.316.071.159.106.317.053.14.07.193.194.562.563 1.09.37.528.668 1.09.351.72.562 1.494.229.773.528 1.53.017.016.087.14.07.123.141.281.088.141.158.281.07.122.088.176.141.335.246.756.106.422.282.756 0 .07.14.264.158.175.194.21.07.088.175.3.106.193.229.403t.246.37q.141.158.264.14a.5.5 0 0 1 .07-.088l.053-.052a.2.2 0 0 0 .052-.035q.246-.352.369-.756.124-.405.317-.756.175-.246.334-.51.176-.28.316-.58.106-.194.159-.492.07-.3.193-.492.018-.018.088-.106l.176-.21q.088-.107.175-.194.089-.105.123-.14 0-.036.018-.141.035-.124.07-.211.158-.563.405-1.073.263-.51.544-1.002l.598-.984a10 10 0 0 0 .545-1.037q.14-.281.176-.527.053-.264.105-.475.07-.228.194-.44.123-.228.439-.456.58-.071 1.195-.088.616-.036 1.231-.036.298 0 .598.018.316.018.615.018l.228-.123.774.21q.017.053.052.106a1 1 0 0 1 .036.088l.035.07v.035q0 .352-.194.563-.193.21-.474.369a7 7 0 0 1-.598.264 2.3 2.3 0 0 0-.51.28.2.2 0 0 0-.052.036q0 .018-.018.035a.1.1 0 0 0-.017.053q-.018.018-.036.105a3 3 0 0 0-.035.176l-.035.176a1 1 0 0 0-.018.105l-.052.176q-.036.123-.071.264a2 2 0 0 1-.087.264l-.053.175q.035.492.035.932v.844q0 .633-.035 1.265a22 22 0 0 1-.106 1.565l-.035.281q0 .141-.017.281-.018.122-.018.176v.088q0 .035.035.21.053.176.053.212v.088q0 .93-.053 1.863a51 51 0 0 0-.035 1.88v1.6q.053.282.299.352.105.034.334.123.228.07.492.158t.492.176q.246.07.352.106a.17.17 0 0 1 .123.087.2.2 0 0 1 .035.088q0 .176-.123.264a.53.53 0 0 1-.264.141 1 1 0 0 1-.334.052 2 2 0 0 1-.263.018q-.458 0-.95-.053a14 14 0 0 0-.984-.035h-.246q-.035 0-.264.035a2 2 0 0 1-.299.053q-.017 0-.14-.018l-.281-.035q-.141 0-.282-.017a2 2 0 0 0-.158-.018h-1.652q-.053 0-.194-.018a3 3 0 0 1-.298-.052l-.317-.035a2 2 0 0 0-.193-.018.8.8 0 0 1-.264-.123q-.123-.088-.123-.193M161.539 121.883q0 .039.063.117.07.078.125.078h.007a391695435473.803 391695435473.803 0 0 1 .204-.039l.046-.008q.165-.031.305-.054l.289-.063q.141-.032.281-.078a6 6 0 0 0 .297-.109q.078-.016.156-.024a.27.27 0 0 0 .141-.078q.156-.109.281-.266a6 6 0 0 1 .336-.398l.094-.109a1 1 0 0 0 .086-.094l.047-.055q.227-.367.336-.719.11-.359.109-.781 0-.672-.297-1.18a3.7 3.7 0 0 0-.789-.945l-.047-.023-.047-.039a5 5 0 0 0-.695-.118q-.336-.03-.687-.078h-.141a.4.4 0 0 1-.086.016l-.133.016-.132.015a.3.3 0 0 0-.079.016.33.33 0 0 0-.187.242 2 2 0 0 0-.024.313v.117q0 .859.055 1.703.063.836.047 1.695l.039.094zm-.914 6.133a2.6 2.6 0 0 1-.602.054q-.296 0-.593.032 0 .015-.071.039a.3.3 0 0 1-.078.031h-.586l-.078-.031a1 1 0 0 1-.117-.063l-.109-.062a.4.4 0 0 1-.079-.055.3.3 0 0 0-.007-.055.4.4 0 0 1-.008-.062q0-.133.062-.196a.37.37 0 0 1 .203-.078q.009 0 .094-.008l.196-.015.21-.016q.11-.008.165-.015h.171q.024.015.04.031.022.023.039.023a.2.2 0 0 0 .125-.054.7.7 0 0 0 .109-.125q.055-.079.094-.157.046-.078.078-.117v-3.422a1 1 0 0 1-.016-.125l-.015-.195-.016-.187v-1.071a.4.4 0 0 1-.016-.078l-.015-.141a1.4 1.4 0 0 0-.024-.265q0-.25.024-.485a3.4 3.4 0 0 0 .031-.46v-.336a1 1 0 0 1-.016-.157l-.015-.281a5 5 0 0 0-.024-.445v-.117a.2.2 0 0 0-.008-.063.4.4 0 0 0-.046-.094v-.898a.2.2 0 0 1-.039-.07v-.071q0-.085.015-.156a.7.7 0 0 0 .024-.188q0-.054-.008-.171 0-.118-.016-.235a.8.8 0 0 0-.039-.218q-.031-.094-.078-.11h-.594a4.864 4.864 0 0 0-.164-.023.5.5 0 0 0-.101-.024 1 1 0 0 1-.071-.015 1 1 0 0 1-.086-.016 1 1 0 0 1-.117-.039l-.101-.063q-.04-.039-.04-.078 0-.21.055-.328a.7.7 0 0 1 .227-.047q.148-.007.281-.007h1.547a1.3 1.3 0 0 1 .281-.047q.148-.009.297-.008h.688q.03 0 .132.031a1 1 0 0 0 .118.024q.015 0 .093-.024a.4.4 0 0 1 .11-.031l.086-.008.171-.016a2 2 0 0 1 .18-.007q.095-.008.141-.008a.1.1 0 0 0 .039-.008h.023q.008-.008.016-.008.015 0 .039.008a.1.1 0 0 0 .039.008q.375.023.758.031.383 0 .758.063a.5.5 0 0 1 .187.07q.102.055.203.07a1 1 0 0 0 .071.024l.125.031.117.031q.062.015.078.024a.2.2 0 0 1 .086.031.3.3 0 0 1 .054.054 1 1 0 0 1 .063.071.4.4 0 0 0 .086.078q.024.015.101.055a.3.3 0 0 0 .11.039q.117.085.25.226.132.14.25.313.125.163.219.336a1.5 1.5 0 0 1 .148.304q.07.156.086.344.023.187.023.352 0 .249-.039.531-.03.273-.101.555-.07.273-.188.531a2 2 0 0 1-.265.445l-.594.586q0 .015-.078.063a.6.6 0 0 0-.117.086q-.07.047-.219.101a4 4 0 0 0-.297.109 1.2 1.2 0 0 0-.25.133q-.11.07-.109.164 0 .094.07.211t.164.242.187.243q.102.117.165.211.132.21.242.429.117.212.242.399l.031.039a3 3 0 0 0 .117.148l.063.063q.11.14.187.312a2.2 2.2 0 0 0 .321.477q.078.086.148.179.078.094.149.188.069.093.117.172a1 1 0 0 0 .023.07.4.4 0 0 1 .031.07q.048.133.125.25.08.11.157.227.086.109.164.227a.9.9 0 0 1 .133.234l.742.742q.094.095.25.141.156.047.328.078.18.031.351.055.172.023.297.07.048.046.047.133 0 .148-.109.203a.5.5 0 0 1-.219.054q-.367 0-.719-.015a28 28 0 0 1-.703-.024 35 35 0 0 1-.711-.023 18 18 0 0 0-.726 0 1.5 1.5 0 0 1-.336-.398 10 10 0 0 1-.258-.485 17 17 0 0 0-.477-.898 10 10 0 0 0-.593-.93l-.086-.117a3 3 0 0 0-.094-.117 1 1 0 0 0-.07-.086 1.5 1.5 0 0 1-.149-.25.9.9 0 0 0-.14-.235l-.086-.078a.4.4 0 0 1-.071-.07l-.015-.07a1 1 0 0 0-.024-.086l-.031-.032a.3.3 0 0 0-.047-.062.2.2 0 0 0-.055-.063l-.031-.039a13 13 0 0 1-.273-.461 3.6 3.6 0 0 0-.344-.531 2.2 2.2 0 0 0-.43-.437.78.78 0 0 0-.507-.188.4.4 0 0 0-.126.024.4.4 0 0 0-.132.054.6.6 0 0 0-.102.094.2.2 0 0 0-.039.117v2.414q.015.016.031.086l.039.156q-.015.017-.023.086l-.016.141-.015.141a.4.4 0 0 1-.016.078v.008q0 .172.031.328.039.148.039.32v.313q-.015.007-.031.054l-.016.094-.015.102-.008.054.008.055.015.094.016.109a1 1 0 0 0 .031.078.4.4 0 0 1 .063.047q.054.031.117.078t.125.086a.7.7 0 0 0 .125.055q.015 0 .07.015.063.008.125.024l.118.031.078.008h.539q.132.015.226.101a.27.27 0 0 1 .094.204.18.18 0 0 1-.047.132.23.23 0 0 1-.109.071.5.5 0 0 1-.149.023 2 2 0 0 1-.148.008q-.305 0-.602-.023a8 8 0 0 1-.578-.055zm11.195-.094a23 23 0 0 1-.453-.11 8 8 0 0 1-.437-.124q-.017 0-.078-.047-.055-.047-.055-.063a3 3 0 0 0-.352-.148 2 2 0 0 1-.281-.125.56.56 0 0 1-.187-.211.95.95 0 0 1-.063-.391v-.039q0-.015.047-.102a.4.4 0 0 0 .047-.101q.039-.164.031-.352 0-.195.023-.382a.3.3 0 0 1 .024-.063.3.3 0 0 0 .031-.078v-.047l.016-.086a3 3 0 0 1 .031-.156v-.07l.016-.125.015-.118a1 1 0 0 0 .008-.078l.008-.054.016-.094a.8.8 0 0 0 .039-.211l.015-.117q.008-.07.016-.125a1 1 0 0 1 .015-.086 1 1 0 0 1 .008-.071q.016-.054.032-.101.023-.047.046-.086.032-.039.071-.039.062 0 .109.117t.078.281q.039.157.063.313.023.156.039.226.007.048.015.172.016.126.024.266.015.14.023.265.016.118.016.165.015.016.031.046.024.032.024.047.062.133.093.25.031.118.102.25.008.024.031.078.032.048.063.102a1 1 0 0 1 .054.094l.047.07a.3.3 0 0 1 .055.047q.039.039.039.055a.2.2 0 0 1 .023.054 1 1 0 0 1 .047.094l.047.094a.2.2 0 0 1 .024.047.7.7 0 0 0 .187.179q.118.078.25.141l.266.109q.132.048.242.094l.062.063q.055.047.071.047h.289a1 1 0 0 1 .148.023q.126.016.157.016h.218q.29 0 .508-.071.227-.07.477-.172.055-.015.148-.031a.35.35 0 0 0 .156-.07 1 1 0 0 0 .071-.055l.117-.117q.062-.062.117-.125l.086-.086q.031-.031.086-.094l.109-.125q.055-.062.094-.109l.055-.063q.007-.007.015-.047l.032-.093.023-.094a.2.2 0 0 1 .023-.055q.04-.1.071-.156a1 1 0 0 0 .062-.117.6.6 0 0 0 .047-.133 1 1 0 0 0 .016-.187q0-.25-.016-.485a17 17 0 0 0-.023-.484.6.6 0 0 0-.125-.266 6 6 0 0 1-.243-.297l-.109-.14a2 2 0 0 0-.109-.141 1 1 0 0 1-.055-.086.3.3 0 0 0-.101-.094.3.3 0 0 0-.086-.046 1 1 0 0 0-.094-.032.5.5 0 0 1-.117-.062 1 1 0 0 1-.157-.156.38.38 0 0 0-.234-.149l-.094-.016-.094-.015-.046-.008-.133-.047a1 1 0 0 1-.11-.047 1 1 0 0 0-.093-.062 2 2 0 0 0-.157-.094 1 1 0 0 0-.156-.094.5.5 0 0 0-.094-.054 2 2 0 0 0-.461-.125 2.2 2.2 0 0 1-.453-.118 2 2 0 0 1-.39-.171 6 6 0 0 1-.344-.227 6 6 0 0 1-.367-.234 4 4 0 0 0-.367-.235q0-.016-.024-.031-.015-.023-.031-.023a6.6 6.6 0 0 1-.594-1.118 3.3 3.3 0 0 1-.234-1.258v-.148q0-.079.008-.148a.5.5 0 0 1 .07-.211l.047-.094a1 1 0 0 1 .047-.094.3.3 0 0 0 .023-.055l.008-.046.016-.094.015-.094a.14.14 0 0 1 .016-.055l.039-.101a2 2 0 0 1 .125-.266.5.5 0 0 1 .086-.117.4.4 0 0 1 .054-.062l.11-.11.109-.109a.3.3 0 0 0 .055-.063q.015 0 .031-.031a.14.14 0 0 0 .024-.07.8.8 0 0 1 .25-.336q.156-.125.375-.258.015.016.039.016.015 0 .015-.016.008 0 .032-.016l.062-.046a.4.4 0 0 1 .07-.047l.032-.024h.148a1 1 0 0 0 .102-.023q.086-.024.179-.047.102-.032.188-.047a.6.6 0 0 1 .117-.023h.383a.5.5 0 0 1 .109-.016l.18-.016.187-.015q.094-.008.118-.008h.046q.016 0 .047.031.032.024.047.024h.305a.7.7 0 0 1 .242.078q.149.062.297.148a5 5 0 0 1 .289.164q.141.086.234.133.016.015.071.039.062.016.07.016a.5.5 0 0 1 .133.109l.125.125q.07.063.14.109.08.047.172.047.11 0 .157-.07a.5.5 0 0 0 .078-.164q.031-.094.047-.188a.6.6 0 0 1 .046-.164q0-.023.032-.062l.07-.086.07-.086a.3.3 0 0 0 .047-.055.06.06 0 0 1 .039-.015h.016q.11 0 .148.109a.5.5 0 0 1 .047.195v.086a.4.4 0 0 1-.015.086 2 2 0 0 1-.024.125l-.031.125a.2.2 0 0 1-.024.063 14 14 0 0 0-.117 1.797q0 .14.008.281.008.133.008.273l-.039.117a.5.5 0 0 1-.055.126.4.4 0 0 1-.078.109.16.16 0 0 1-.102.039.25.25 0 0 1-.148-.039.3.3 0 0 1-.078-.094 1 1 0 0 1-.039-.125 1 1 0 0 0-.039-.133 9 9 0 0 1-.172-.554 7 7 0 0 0-.172-.539 1 1 0 0 0-.133-.219 2 2 0 0 0-.203-.25 3 3 0 0 0-.219-.242 5 5 0 0 1-.179-.203 2 2 0 0 1-.149-.235.46.46 0 0 0-.18-.203 2 2 0 0 0-.203-.094 3 3 0 0 0-.242-.101 2 2 0 0 0-.25-.078.8.8 0 0 0-.211-.032 1 1 0 0 0-.383.078 4 4 0 0 1-.39.125l-.047.008-.078.016q-.047.007-.086.016a.3.3 0 0 1-.063.007h-.195l-.039.032-.078.054-.078.063a.3.3 0 0 0-.055.054 3 3 0 0 0-.344.352 1.5 1.5 0 0 0-.211.344q-.07.171-.101.383a3.4 3.4 0 0 0 0 .898q.015.117.039.219a.4.4 0 0 0 .078.148l.641.617.062.039a1 1 0 0 0 .172.086l.055.024.047.039.093.062a1 1 0 0 1 .094.063q.047.024.055.031.156.102.336.164.179.056.343.141a1 1 0 0 1 .086.039q.07.023.141.055.07.03.133.062a.5.5 0 0 1 .094.039q.008 0 .062.031.055.032.117.071.07.031.125.062l.086.031.055.008a.8.8 0 0 1 .203.032q.055.008.07.015.016 0 .071.039a1 1 0 0 1 .07.047q.031.016.102.055.078.031.156.07l.148.078a1 1 0 0 1 .094.047q.398.187.734.508.344.32.586.726.25.407.391.86.141.446.141.89v.086l-.024.219a6 6 0 0 1-.078.649 1.5 1.5 0 0 1-.094.32 1.6 1.6 0 0 1-.156.273q-.086.133-.188.266-.093.133-.195.273a.1.1 0 0 1-.015.039l-.032.055a.4.4 0 0 1-.039.063.1.1 0 0 0-.015.039.37.37 0 0 1-.18.156 1 1 0 0 0-.203.117.3.3 0 0 1-.047.055l-.07.086-.079.078q-.03.031-.039.031a1.6 1.6 0 0 1-.273.149 3 3 0 0 1-.273.093 23 23 0 0 1-.594.157 5 5 0 0 0-.282.093.8.8 0 0 1-.289.047h-.156a9 9 0 0 1-.359-.039 35 35 0 0 1-.547-.055q-.281-.03-.539-.054zm8.907 0a21 21 0 0 1-.454-.11 8 8 0 0 1-.437-.124q-.016 0-.078-.047-.055-.047-.055-.063a3 3 0 0 0-.351-.148 2 2 0 0 1-.282-.125.6.6 0 0 1-.187-.211.95.95 0 0 1-.063-.391v-.039q0-.015.047-.102a.4.4 0 0 0 .047-.101q.04-.164.031-.352 0-.195.024-.382a.4.4 0 0 1 .023-.063.3.3 0 0 0 .031-.078v-.047q.009-.04.016-.086.007-.047.016-.086a1 1 0 0 1 .015-.07v-.07l.016-.125.016-.118.007-.078.008-.054.016-.094a.8.8 0 0 0 .039-.211l.016-.117.015-.125a1 1 0 0 1 .016-.086q0-.024.008-.071.015-.054.031-.101a1 1 0 0 1 .047-.086q.031-.039.07-.039.063 0 .109.117.048.117.078.281.04.157.063.313.024.156.039.226.007.048.016.172.015.126.023.266.016.14.024.265.015.118.015.165a.2.2 0 0 1 .031.046q.024.032.024.047.063.133.094.25.03.118.101.25.008.024.031.078.031.048.063.102a1 1 0 0 1 .055.094l.047.07q.015.008.054.047t.039.055a.2.2 0 0 1 .024.054q.023.04.047.094l.046.094a.2.2 0 0 1 .024.047.7.7 0 0 0 .187.179q.118.078.25.141l.266.109q.133.048.242.094l.063.063q.055.047.07.047h.289q.031 0 .149.023.125.016.156.016h.218q.29 0 .508-.071.226-.07.477-.172.054-.015.148-.031a.4.4 0 0 0 .157-.07 1 1 0 0 0 .07-.055l.117-.117a2 2 0 0 0 .117-.125l.086-.086q.032-.031.086-.094l.11-.125.093-.109.055-.063q.007-.007.016-.047l.031-.093.023-.094a.2.2 0 0 1 .024-.055q.039-.1.07-.156a1 1 0 0 0 .062-.117.6.6 0 0 0 .047-.133 1 1 0 0 0 .016-.187q0-.25-.016-.485a17 17 0 0 0-.023-.484.6.6 0 0 0-.125-.266 7 7 0 0 1-.242-.297l-.11-.14a2 2 0 0 0-.109-.141l-.055-.086a.3.3 0 0 0-.101-.094.3.3 0 0 0-.086-.046 1 1 0 0 0-.094-.032.5.5 0 0 1-.117-.062 1 1 0 0 1-.156-.156.4.4 0 0 0-.172-.133.2.2 0 0 0-.063-.016l-.094-.016-.093-.015-.047-.008-.133-.047a.6.6 0 0 1-.109-.047 1 1 0 0 0-.094-.062 2 2 0 0 0-.156-.094 1 1 0 0 0-.157-.094.5.5 0 0 0-.093-.054 2 2 0 0 0-.461-.125 2.2 2.2 0 0 1-.453-.118 2 2 0 0 1-.391-.171 6 6 0 0 1-.344-.227 6 6 0 0 1-.367-.234 4 4 0 0 0-.367-.235q0-.016-.024-.031-.015-.023-.031-.023a6.7 6.7 0 0 1-.594-1.118 3.3 3.3 0 0 1-.234-1.258v-.148q0-.079.008-.148a.5.5 0 0 1 .07-.211l.047-.094a1 1 0 0 1 .047-.094.2.2 0 0 0 .023-.055l.008-.046.016-.094.015-.094a.2.2 0 0 1 .016-.055q.016-.038.039-.101.024-.063.055-.133a1.1 1.1 0 0 1 .156-.25.4.4 0 0 1 .055-.062l.109-.11.11-.109a.3.3 0 0 0 .054-.063q.016 0 .031-.031a.14.14 0 0 0 .024-.07.8.8 0 0 1 .25-.336q.156-.125.375-.258.015.016.039.016.016 0 .016-.016.007 0 .031-.016l.062-.046a.4.4 0 0 1 .071-.047l.031-.024h.148a1 1 0 0 0 .102-.023q.085-.024.18-.047.101-.032.187-.047a1 1 0 0 1 .117-.023h.383a.5.5 0 0 1 .109-.016l.18-.016.188-.015a2 2 0 0 1 .117-.008h.047q.015 0 .047.031.03.024.046.024h.305a.7.7 0 0 1 .242.078q.149.062.297.148a5 5 0 0 1 .289.164q.14.086.235.133.015.015.07.039.063.016.07.016a.5.5 0 0 1 .133.109l.125.125q.07.063.141.109a.3.3 0 0 0 .172.047q.109 0 .156-.07a.5.5 0 0 0 .078-.164q.031-.094.047-.188a.6.6 0 0 1 .047-.164q0-.023.031-.062l.07-.086.071-.086a.3.3 0 0 0 .046-.055.06.06 0 0 1 .04-.015h.015q.11 0 .149.109a.5.5 0 0 1 .046.195v.086a.4.4 0 0 1-.015.086 1 1 0 0 1-.024.125l-.031.125a.2.2 0 0 1-.023.063 14 14 0 0 0-.117 1.797q0 .14.007.281.009.133.008.273l-.039.117a.4.4 0 0 1-.055.126.4.4 0 0 1-.078.109.16.16 0 0 1-.101.039.25.25 0 0 1-.149-.039.3.3 0 0 1-.078-.094 1 1 0 0 1-.039-.125 1 1 0 0 0-.039-.133 10 10 0 0 1-.172-.554 7 7 0 0 0-.172-.539 1 1 0 0 0-.133-.219 2 2 0 0 0-.203-.25 4 4 0 0 0-.218-.242 5 5 0 0 1-.18-.203 2 2 0 0 1-.149-.235.46.46 0 0 0-.179-.203 2 2 0 0 0-.203-.094 3 3 0 0 0-.243-.101 2 2 0 0 0-.25-.078.8.8 0 0 0-.211-.032 1 1 0 0 0-.382.078 4 4 0 0 1-.391.125l-.047.008-.078.016q-.047.007-.086.016a.3.3 0 0 1-.062.007h-.196l-.039.032-.078.054-.078.063a.3.3 0 0 0-.055.054q-.21.188-.343.352a1.5 1.5 0 0 0-.211.344 1.6 1.6 0 0 0-.102.383 3.4 3.4 0 0 0-.023.664q.008.11.023.234.016.117.039.219a.4.4 0 0 0 .078.148l.641.617.062.039a1 1 0 0 0 .172.086l.055.024.047.039.094.062a1 1 0 0 1 .093.063.3.3 0 0 1 .055.031q.156.102.336.164.18.056.344.141a1 1 0 0 1 .086.039q.07.023.14.055.07.03.133.062a.5.5 0 0 1 .094.039q.008 0 .062.031.055.032.117.071.07.031.126.062l.085.031.055.008a.8.8 0 0 1 .203.032q.055.008.071.015.015 0 .07.039a1 1 0 0 1 .07.047q.032.016.102.055.078.031.156.07t.148.078a1 1 0 0 1 .094.047q.399.187.735.508.344.32.585.726.25.407.391.86.141.446.141.89v.086l-.024.219a6 6 0 0 1-.078.649 1.5 1.5 0 0 1-.094.32 1.5 1.5 0 0 1-.156.273q-.086.133-.187.266l-.196.273a.1.1 0 0 1-.015.039l-.032.055a.4.4 0 0 1-.039.063.1.1 0 0 0-.015.039.37.37 0 0 1-.18.156 1 1 0 0 0-.203.117.3.3 0 0 1-.047.055l-.07.086-.078.078q-.031.031-.039.031a1.6 1.6 0 0 1-.274.149 2 2 0 0 1-.273.093l-.289.078a5 5 0 0 0-.586.172.8.8 0 0 1-.289.047h-.157a9 9 0 0 1-.359-.039 35 35 0 0 1-.547-.055q-.28-.03-.539-.054zm9.906-.117v-.102a.2.2 0 0 1 .047-.047l.07-.023.094-.047a1 1 0 0 1 .086-.039q.039-.024.039-.031h.5l.047-.008.093-.016a1 1 0 0 1 .133-.031h.539a.5.5 0 0 0 .094-.086.3.3 0 0 0 .055-.109q.007-.048.015-.172.017-.126.024-.258.008-.14.008-.266.007-.124.007-.172v-.054q0-.063-.031-.094a.2.2 0 0 1-.023-.086v-.07q0-.032.008-.164l.015-.289a8 8 0 0 0 .031-.461v-.789q0-.008.008-.047l.016-.094.015-.094.008-.054a8.674 8.674 0 0 1-.023-.211l-.016-.141-.008-.094v-.672q.008-.218.008-.414v-.422l.039-1.46a1 1 0 0 1-.047-.11v-.101q0-.235.071-.446.07-.219.07-.445a.7.7 0 0 0-.047-.242.8.8 0 0 1-.047-.266q0-.273.024-.547.031-.273.031-.547v-.617a.305.305 0 0 0-.219-.265 1.7 1.7 0 0 0-.445-.11 16 16 0 0 0-.508-.07.8.8 0 0 1-.391-.141q-.1-.047-.101-.203 0-.093.101-.117a1 1 0 0 1 .188-.023h.156q.532.039 1.063.046.538.009 1.078.055h4.43q.023 0 .093-.008l.149-.015.156-.016q.07-.008.102-.008h.25q.046 0 .171.008l.258.016.266.015q.124.008.172.008.039.015.078.039a.13.13 0 0 1 .07.055v.445q0 .055-.008.203a7 7 0 0 1-.031.617q-.007.14-.016.196.07.195.086.39.016.196.016.391v.453a.4.4 0 0 1-.062.11q-.031.03-.118.031-.117 0-.211-.133a2 2 0 0 1-.171-.305 9 9 0 0 1-.149-.359 1.5 1.5 0 0 0-.125-.281l-.023-.032a.4.4 0 0 0-.063-.078l-.062-.086a.4.4 0 0 1-.039-.054q-.008 0-.024-.063l-.015-.062a51.75 51.75 0 0 1-.399-.555 1.2 1.2 0 0 0-.266-.273.9.9 0 0 0-.328-.157 1.8 1.8 0 0 0-.492-.054.4.4 0 0 0-.164.031.6.6 0 0 1-.164.023h-.047a.49.49 0 0 1-.203-.054h-1.07l-.055-.008a.5.5 0 0 0-.094-.008l-.094-.016a1 1 0 0 0-.062-.007h-.266q-.375 0-.562.171-.18.164-.18.563v.055q0 .008.016.062.015.047.031.078v1.211q0 .227-.055.461-.046.227-.046.445v.063q0 .023.007.109.009.078.016.172a2 2 0 0 1 .031.258v1.273a.2.2 0 0 0 .031.079q.024.03.055.062.046 0 .156-.008l.235-.015.234-.016a3 3 0 0 1 .164-.008h.086l.141-.015.125-.016q.062-.016.086-.024l.039-.007a.2.2 0 0 1 .062-.008q.031-.008.055-.016l.039-.008h.836a.7.7 0 0 0 .172-.023.8.8 0 0 0 .187-.07.6.6 0 0 0 .141-.125.27.27 0 0 0 .07-.164l.102-1.485a.2.2 0 0 1 .094-.148.35.35 0 0 1 .171-.047q.148 0 .258.078.117.078.117.234v.133l-.007.11-.016.171q-.007.094-.016.172l-.007.086v.922l-.008.063a1 1 0 0 1-.024.101l-.015.094-.008.039v.055q0 .476.07.953.07.476.071.953v.289a.8.8 0 0 1-.133.234q-.078.102-.235.102a.3.3 0 0 1-.187-.055.4.4 0 0 1-.11-.148.7.7 0 0 1-.054-.188 1.204 1.204 0 0 1 .008-.437q.03-.125.031-.258 0-.234-.031-.391a.5.5 0 0 0-.102-.257.44.44 0 0 0-.219-.149 1.4 1.4 0 0 0-.367-.055q-.024 0-.133-.007l-.218-.016a4 4 0 0 0-.344-.031l-.61-.032a8 8 0 0 0-.601-.023h-.25a1 1 0 0 1-.078.055q-.056.031-.063.054l-.015.016q-.009 0-.016.008a.1.1 0 0 0-.023.016v2.257q-.009.008-.016.047l-.016.086-.015.094a.3.3 0 0 0-.008.062q0 .016.023.063l.032.062v.11q0 .406-.032.812-.023.399-.023.797v.11q0 .07.008.14a.3.3 0 0 0 .047.133h.554l.172-.016.172-.015a.5.5 0 0 0 .125-.024q.047.056.078.063a.541.541 0 0 0 .336-.047.5.5 0 0 1 .219-.055q.07 0 .133.039.062.039.109.102a.7.7 0 0 1 .078.133.3.3 0 0 1 .031.125q0 .117-.054.187a.3.3 0 0 1-.133.094.5.5 0 0 1-.18.047 3 3 0 0 1-.195.008h-.461l-.141-.086a.4.4 0 0 0-.125-.016q-.132 0-.258.023a1 1 0 0 1-.25.032q-.171 0-.336-.032a2.4 2.4 0 0 0-.335-.023q-.165 0-.344.023a1.9 1.9 0 0 1-.68 0 3 3 0 0 0-.344-.023q-.312 0-.617.047a3.6 3.6 0 0 1-.625.055h-.234a1.3 1.3 0 0 1-.18-.102q-.07-.063-.07-.195m11.953.14h-.039a1 1 0 0 0-.117.024 1 1 0 0 0-.125.031H200.5l-.039-.055a.4.4 0 0 1-.055-.086v-.047a.18.18 0 0 1 .078-.156.6.6 0 0 1 .196-.078 1.5 1.5 0 0 1 .226-.031.7.7 0 0 0 .18-.031q.054-.032.125-.086a.5.5 0 0 0 .109-.11.4.4 0 0 0 .016-.086 1.3 1.3 0 0 0 .031-.273 1.594 1.594 0 0 1 .071-.399q.046-.164.046-.32v-.93l.008-.046a.4.4 0 0 0 .008-.078l.016-.071.007-.047v-.047a1 1 0 0 0-.015-.132q-.016-.094-.024-.133l-.031-1.852-.008-.14v-1.227a.3.3 0 0 0-.047-.086 1 1 0 0 0-.078-.109.37.37 0 0 0-.211-.141 3 3 0 0 0-.304-.094 2 2 0 0 1-.282-.093q-.117-.055-.117-.157 0-.07.039-.109a.391.391 0 0 1 .235-.078q.07-.008.117-.008h.094q.03 0 .125.008.094 0 .187.008l.188.015q.093 0 .132.008l.047.055h.055q.015-.016.07-.031a.3.3 0 0 1 .078-.024h.93q.032 0 .125-.008.094-.016.11-.031h2.164a.2.2 0 0 0 .07.031 1 1 0 0 0 .078.008h.539a.37.37 0 0 1 .242.109.8.8 0 0 1 .149.243v.578q0 .015.023.101a1 1 0 0 1 .031.094v.07q0 .031-.015.118a1 1 0 0 1-.031.179.7.7 0 0 1-.063.157q-.031.07-.078.07h-.008a1.24 1.24 0 0 1-.398-.492.6.6 0 0 0-.055-.102 1.2 1.2 0 0 0-.117-.219 1.3 1.3 0 0 0-.18-.226.8.8 0 0 0-.227-.164.5.5 0 0 0-.25-.071h-1.679a.16.16 0 0 0-.071-.046.2.2 0 0 0-.07-.008h-.054l-.11.054a.2.2 0 0 0-.086.055q-.007 0-.015.039a1 1 0 0 1-.008.078.4.4 0 0 1-.008.078q0 .031-.008.04 0 .015-.023.054a.2.2 0 0 1-.032.047q0 .078-.007.266l-.016.398a35 35 0 0 1-.031.649v.289q.007.046.015.148l.016.211q.007.11.016.203.007.094.007.133a.6.6 0 0 0 .102.055l.141.047q.078.023.148.039.07.007.109.007h.094q.196-.015.391-.023a1.3 1.3 0 0 0 .367-.063.7.7 0 0 0 .297-.179.68.68 0 0 0 .187-.469l.016-.148.016-.149a1 1 0 0 0 .007-.101.35.35 0 0 1 .133-.125q.102-.07.172-.071.118 0 .172.094.054.086.055.188 0 .085-.008.156a.5.5 0 0 1-.031.156v1.562q.03.063.031.126.008.062.008.124v.352a.4.4 0 0 1-.047.203q-.039.086-.196.086a.24.24 0 0 1-.195-.086.7.7 0 0 1-.109-.234 3 3 0 0 1-.063-.297 2 2 0 0 0-.062-.297.6.6 0 0 0-.094-.227q-.054-.093-.172-.093h-.086a2.942 2.942 0 0 1-.226.031q-.078.007-.141.016l-.07.007h-.547a.46.46 0 0 0-.235.118.5.5 0 0 0-.132.195.9.9 0 0 0-.063.242 5 5 0 0 0-.008.274v.273a1 1 0 0 1-.007.094.5.5 0 0 0-.008.086q0 .015-.024.093a1 1 0 0 0-.023.094v.656q0 .18.015.336.017.157.086.336a.8.8 0 0 0 .36.118q.18.008.375.023.032 0 .14.016.11.015.235.039.124.023.234.039.11.015.141.015h.429q0 .008.04.047a.3.3 0 0 0 .07.039h.039a.2.2 0 0 0 .047-.023l.031-.016a.1.1 0 0 1 .023-.008q.017 0 .047.047l.047.055h.055a.2.2 0 0 1 .016-.055q.015-.047.039-.047h.039q.468-.273.789-.679.32-.407.625-.836l.023-.008q.008 0 .008.008h.023q.009 0 .039.039a.2.2 0 0 1 .047.055v.343q0 .047-.015.172-.016.125-.032.266a4 4 0 0 1-.023.265q-.016.126-.016.172a.34.34 0 0 0-.062.133 1 1 0 0 1-.023.141.6.6 0 0 1-.032.125.2.2 0 0 1-.078.101l-.18.008q-.124 0-.265.008l-.266.016q-.124.007-.172.007-.007 0-.054.016l-.094.039a1 1 0 0 1-.094.039.3.3 0 0 1-.047.016 1.294 1.294 0 0 0-.195-.055h-.031q-.18 0-.368.023a2.3 2.3 0 0 1-.39.032 6 6 0 0 1-.797-.055 6 6 0 0 0-.789-.055m7.281 0h-.039a1 1 0 0 0-.117.024 1 1 0 0 0-.125.031h-1.805l-.039-.055a.4.4 0 0 1-.054-.086v-.047a.18.18 0 0 1 .078-.156.6.6 0 0 1 .195-.078q.109-.024.227-.031a.7.7 0 0 0 .179-.031 1 1 0 0 0 .125-.086.5.5 0 0 0 .11-.11 1 1 0 0 0 .015-.086 1.3 1.3 0 0 0 .031-.273 1.754 1.754 0 0 1 .071-.399 1.2 1.2 0 0 0 .047-.32v-.93q0-.007.007-.046a.3.3 0 0 0 .008-.078q.008-.04.016-.071.008-.038.008-.047v-.047q0-.039-.016-.132l-.023-.133-.032-1.852-.007-.14v-1.227a.3.3 0 0 0-.047-.086l-.078-.109a.38.38 0 0 0-.211-.141 3 3 0 0 0-.305-.094 2 2 0 0 1-.281-.093q-.117-.055-.117-.157 0-.07.039-.109a.391.391 0 0 1 .234-.078q.07-.008.117-.008h.094q.031 0 .125.008.093 0 .187.008l.188.015q.093 0 .133.008l.047.055h.054a.2.2 0 0 1 .071-.031.3.3 0 0 1 .078-.024h.929q.032 0 .125-.008.094-.016.11-.031h2.164q.015.016.07.031a1 1 0 0 0 .078.008h.539a.37.37 0 0 1 .242.109.8.8 0 0 1 .149.243v.578q0 .015.023.101a1 1 0 0 1 .032.094v.07q0 .031-.016.118a1 1 0 0 1-.031.179.7.7 0 0 1-.063.157q-.031.07-.078.07h-.008a1.2 1.2 0 0 1-.203-.188 1.6 1.6 0 0 1-.195-.304.6.6 0 0 0-.055-.102 1.2 1.2 0 0 0-.117-.219 1.3 1.3 0 0 0-.18-.226.8.8 0 0 0-.226-.164.5.5 0 0 0-.25-.071h-1.68a.16.16 0 0 0-.07-.046.2.2 0 0 0-.071-.008h-.054l-.11.054a.2.2 0 0 0-.086.055q-.008 0-.015.039a1 1 0 0 1-.008.078.4.4 0 0 1-.008.078q0 .031-.008.04 0 .015-.023.054a.2.2 0 0 1-.031.047q0 .078-.008.266l-.016.398-.015.391a6 6 0 0 1-.016.258v.289q.007.046.016.148l.015.211.016.203q.008.094.008.133a.5.5 0 0 0 .101.055l.141.047q.078.023.148.039.07.007.11.007h.093q.196-.015.391-.023a1.3 1.3 0 0 0 .367-.063.669.669 0 0 0 .485-.648l.015-.148.016-.149q.008-.07.008-.101a.34.34 0 0 1 .133-.125q.1-.07.171-.071.118 0 .172.094.055.086.055.188 0 .085-.008.156 0 .07-.031.156v1.562a.3.3 0 0 1 .031.126q.008.062.008.124v.352a.4.4 0 0 1-.047.203q-.039.086-.195.086a.24.24 0 0 1-.196-.086.7.7 0 0 1-.109-.234 2 2 0 0 1-.062-.297 3 3 0 0 0-.063-.297.6.6 0 0 0-.094-.227q-.054-.093-.172-.093h-.086a3.156 3.156 0 0 1-.226.031q-.078.007-.141.016l-.07.007h-.547a.45.45 0 0 0-.234.118.5.5 0 0 0-.133.195 1 1 0 0 0-.063.242q-.007.133-.007.274v.273a1 1 0 0 1-.008.094 1 1 0 0 0-.008.086q0 .015-.023.093a1 1 0 0 0-.024.094v.656q0 .18.016.336.015.157.086.336a.8.8 0 0 0 .359.118q.18.008.375.023.032 0 .141.016.11.015.234.039.125.023.234.039.11.015.141.015h.43q0 .008.039.047a.3.3 0 0 0 .07.039h.039a.2.2 0 0 0 .047-.023l.031-.016a.1.1 0 0 1 .024-.008q.015 0 .047.047.03.04.047.055h.054a.2.2 0 0 1 .016-.055q.015-.047.039-.047h.039q.468-.273.789-.679.32-.407.625-.836l.023-.008q.008 0 .008.008h.024q.008 0 .039.039a.3.3 0 0 1 .047.055v.343q0 .047-.016.172l-.031.266a3 3 0 0 1-.024.265q-.015.126-.015.172a.35.35 0 0 0-.063.133 1 1 0 0 1-.023.141.6.6 0 0 1-.031.125.2.2 0 0 1-.079.101q-.047 0-.179.008-.125 0-.266.008l-.266.016q-.125.007-.171.007-.009 0-.055.016l-.094.039a1 1 0 0 1-.094.039q-.039.016-.046.016a.5.5 0 0 1-.102-.032 1 1 0 0 0-.094-.023h-.031q-.18 0-.367.023a2.4 2.4 0 0 1-.391.032q-.398 0-.797-.055a6 6 0 0 0-.789-.055m4.969-.257q0-.094.07-.141a.5.5 0 0 1 .164-.086.8.8 0 0 1 .196-.039q.1-.008.164-.016h.086l.148-.015.141-.016a.4.4 0 0 0 .093-.016l.149-.148q0-.032.008-.063a.4.4 0 0 0 .015-.093q0-.22-.031-.422a3 3 0 0 1-.031-.414q0-.087.031-.149a.3.3 0 0 0 .031-.132.7.7 0 0 0-.031-.219.7.7 0 0 1-.031-.211q0-.086.031-.164a.4.4 0 0 0 .031-.164q0-.016-.015-.032a.1.1 0 0 1-.008-.039l-.008-.031a.4.4 0 0 0-.008-.078l-.023-.109v-.055l.023-.078a.4.4 0 0 0 .016-.063 8 8 0 0 1 .008-.617l.031-.601q.024-.297.039-.594.023-.305.023-.617v-.032a.8.8 0 0 0-.023-.164q-.015-.11-.031-.117a.1.1 0 0 1-.016-.023q-.015-.032-.031-.032a.2.2 0 0 1-.031-.046.2.2 0 0 1-.008-.047q0-.016.015-.055a.2.2 0 0 0 .024-.047q0-.007.008-.015a.06.06 0 0 0 .015-.04q0-.218-.172-.296a1.5 1.5 0 0 0-.375-.118 5 5 0 0 1-.375-.086q-.164-.054-.164-.226 0-.11.071-.172a.45.45 0 0 1 .179-.086.7.7 0 0 1 .211-.031q.11-.008.18-.008.04 0 .109.008l.086.008q.016 0 .086.023a.5.5 0 0 0 .102.024h.781q.055.03.125.046a1 1 0 0 0 .281 0 1 1 0 0 1 .133-.007q.024 0 .07.007a.8.8 0 0 1 .227.032q.063.007.102.015h.179q.008-.008.047-.015l.078-.016.071-.016.039-.007h.132a2 2 0 0 1 .383 0h.133a.2.2 0 0 1 .047-.024.2.2 0 0 1 .055-.015h.039a1.7 1.7 0 0 0 .461.07h.234q.07 0 .141.008.07 0 .14.015.031.008.133.039.11.032.234.071.126.03.243.07.117.039.172.055.1.038.257.125.157.078.313.179.164.102.304.203.148.102.219.18.133.133.227.297.093.156.242.289.007.039.039.133.039.093.078.195.047.094.078.188.04.093.055.133.008 0 .031.039.024.039.047.085a.4.4 0 0 1 .047.094q.023.048.023.055 0 .023.008.086.008.054.016.125.007.063.016.117l.007.063q.016.039.047.132a1 1 0 0 1 .047.118v.484q0 .523-.133.984-.124.453-.351.922a1 1 0 0 1-.211.266.6.6 0 0 0-.18.281l-.125.102a5 5 0 0 1-.172.148 3 3 0 0 0-.172.141l-.109.086-.078.039a2 2 0 0 1-.125.062 3 3 0 0 0-.195.094q0 .008-.04.031l-.07.039-.078.047a.3.3 0 0 1-.062.031.6.6 0 0 1-.235.102 2 2 0 0 0-.25.039 1.4 1.4 0 0 0-.219.094.74.74 0 0 1-.32.07l-.172.016q-.086 0-.164.008a1 1 0 0 1-.094.007.3.3 0 0 0-.078.032.3.3 0 0 1-.07.023h-.102a.4.4 0 0 1-.078-.016q-.054-.015-.062-.039h-2.836a.3.3 0 0 1-.11.047.5.5 0 0 1-.093.008h-.313a2 2 0 0 1-.297-.039.9.9 0 0 1-.25-.094.2.2 0 0 1-.109-.179m2.68-1.196q0 .266.031.461.039.195.141.32a.6.6 0 0 0 .281.188q.188.054.476.055a.9.9 0 0 0 .258-.047 3 3 0 0 1 .227-.063.36.36 0 0 0 .211-.07q.078-.062.187-.125l.391-.18a2.2 2.2 0 0 0 .383-.242.5.5 0 0 0 .156-.187 1.2 1.2 0 0 1 .14-.204l.297-.351a1.5 1.5 0 0 0 .243-.399q.156-.328.203-.718a7 7 0 0 0 .047-.766v-.117l-.024-.117-.031-.164-.031-.157a1 1 0 0 1-.016-.101 1.4 1.4 0 0 0-.203-.469 18 18 0 0 0-.281-.406.44.44 0 0 0-.157-.125.6.6 0 0 1-.148-.11 4 4 0 0 0-.328-.375 1.2 1.2 0 0 0-.391-.273.4.4 0 0 1-.078-.016l-.07-.031a1 1 0 0 1-.11-.07l-.086-.078a1.44 1.44 0 0 0-.617-.211 6 6 0 0 0-.633-.039h-.172a.26.26 0 0 0-.132.195 1.6 1.6 0 0 0-.024.289v.094q0 .085-.008.172 0 .078-.031.14v2.789a.3.3 0 0 0-.023.086 1 1 0 0 0-.016.094.2.2 0 0 0-.008.07v.391q.009.149.008.18 0 .016-.008.07l-.015.125-.016.133-.008.07q0 .016-.008.125a2 2 0 0 0-.007.164m12.781-2.945q.212.031.453.055.242.015.484.023l.485.016h.601a.5.5 0 0 0 .196-.032q.078-.04.078-.179a.65.65 0 0 0-.078-.305 2.4 2.4 0 0 1-.118-.297 21 21 0 0 1-.164-.601 4 4 0 0 0-.179-.579.4.4 0 0 0-.047-.093l-.055-.102a1 1 0 0 1-.023-.094 4.317 4.317 0 0 0-.055-.312.5.5 0 0 0-.039-.156 1 1 0 0 0-.063-.133l-.062-.156-.047-.125-.016-.032-.031-.062a.4.4 0 0 0-.031-.063.2.2 0 0 1-.016-.039.5.5 0 0 1-.054-.156 2 2 0 0 0-.039-.164.7.7 0 0 0-.047-.149.3.3 0 0 0-.094-.117h-.039q-.11 0-.188.18-.07.18-.125.406a8 8 0 0 0-.093.446 2 2 0 0 1-.102.437.6.6 0 0 1-.047.133q-.086.336-.187.672-.094.328-.164.664l-.008.062a1 1 0 0 1-.008.11l-.016.109a1 1 0 0 0-.007.063.3.3 0 0 1-.055.093 1 1 0 0 0-.086.149.3.3 0 0 0-.016.109v.055q0 .062.016.109.015.039.086.055m-3.805 4.281q0-.063.047-.133a.4.4 0 0 1 .094-.101l.117-.008a.6.6 0 0 0 .133-.031 2 2 0 0 0 .344-.133q.156-.086.328-.172.171-.07.297-.109.125-.04.218-.094a.7.7 0 0 0 .188-.149q.093-.094.187-.265a.6.6 0 0 0 .063-.258q.015-.156.031-.242 0-.007.023-.039a.2.2 0 0 0 .032-.047l.023-.086a.3.3 0 0 0 .024-.07v-.055l.015-.094.016-.086.008-.054.023-.04.016-.031.015-.039q.047-.078.102-.203.063-.125.117-.266.055-.14.102-.265.046-.133.07-.227a4 4 0 0 1 .141-.469q.093-.234.164-.468.031-.156.062-.336a5 5 0 0 1 .07-.336.6.6 0 0 0 .047-.117q.032-.102.047-.133a.5.5 0 0 1 .055-.07q.047-.063.047-.079.008-.007.008-.039l.015-.078a1 1 0 0 0 .008-.078l.008-.047a.5.5 0 0 0 .031-.093 1.6 1.6 0 0 0 .063-.243 1 1 0 0 0 .015-.062q0-.008.024-.055l.047-.109.039-.11.031-.07a.4.4 0 0 0 .047-.101l.062-.18q.031-.101.055-.188a.5.5 0 0 0 .031-.117q.032-.078.063-.203.038-.125.086-.25.046-.133.109-.242a.5.5 0 0 1 .141-.172 1.6 1.6 0 0 1 .101-.367q.07-.18.149-.344.078-.172.132-.344.063-.18.063-.375a.5.5 0 0 0-.055-.258.5.5 0 0 0-.109-.148 2 2 0 0 0-.11-.117.22.22 0 0 1-.039-.195.3.3 0 0 0 .008-.055q.11-.063.25-.11t.274-.101q.14-.062.25-.149a.46.46 0 0 0 .148-.234 3.258 3.258 0 0 0 .078-.234q.024-.078.047-.149l.031-.086a.4.4 0 0 1 .063-.14.16.16 0 0 1 .133-.071q.007 0 .007.008h.032a.3.3 0 0 1 .054.055 1 1 0 0 1 .079.07.6.6 0 0 1 .078.078.2.2 0 0 1 .039.047q.015 0 .031.055a.2.2 0 0 1 .023.078q0 .031.024.133.023.101.047.219.023.109.047.21a1 1 0 0 1 .023.126q.008.03.047.148t.078.25q.047.125.086.242.039.11.039.141.07.25.141.539a9 9 0 0 0 .164.594 1 1 0 0 1 .047.093q.03.048.054.094l.039.047a1 1 0 0 1 .071.32q.015.164.078.321.156.492.32.953a13 13 0 0 1 .32 1.047q.016.07.032.156l.031.148q.016.07.016.086l.031.071.047.101a.6.6 0 0 1 .047.102.3.3 0 0 1 .023.054q0 .016.008.071l.015.109.016.109.008.063.031.141q.032.109.063.234a6 6 0 0 1 .109.367q.085.312.195.617.118.305.196.641l.117.578q.062.273.172.547.047.117.086.258a.7.7 0 0 0 .109.226q.085.134.219.219.14.078.289.125.156.047.312.07.165.016.297.024.117.038.141.125a.5.5 0 0 1 .031.179.1.1 0 0 1-.008.024v.023a.1.1 0 0 0-.008.039l-.101.055h-.594a.3.3 0 0 1-.078-.031.3.3 0 0 0-.063-.024h-.039q-.125 0-.234.024a.9.9 0 0 1-.242.031 1.7 1.7 0 0 1-.32-.031 2 2 0 0 0-.321-.024.6.6 0 0 0-.164.024.4.4 0 0 1-.164.031q-.21 0-.422-.031a4 4 0 0 0-.429-.024q-.329 0-.665.055a4 4 0 0 1-.679.055h-.235a.7.7 0 0 1-.109-.125.3.3 0 0 1-.039-.157q0-.1.109-.156.118-.054.289-.086a4 4 0 0 1 .383-.047 8 8 0 0 0 .422-.054q.204-.031.367-.094a.56.56 0 0 0 .258-.172v-.328a.2.2 0 0 1-.023-.055 2.29 2.29 0 0 0-.055-.242l-.023-.101-.032-.079a3 3 0 0 0-.054-.132l-.047-.141a.4.4 0 0 1-.016-.078l-.031-.102-.039-.172-.047-.171a.6.6 0 0 1-.023-.11.3.3 0 0 1-.032-.07 1 1 0 0 0-.047-.133 2 2 0 0 0-.047-.141 2.9 2.9 0 0 1-.07-.289 2 2 0 0 0-.062-.25 1.3 1.3 0 0 0-.078-.226.36.36 0 0 0-.118-.149h-.679a.3.3 0 0 0-.078.032.4.4 0 0 1-.079.023h-.039l-.054-.008-.094-.015a.5.5 0 0 0-.094-.024q-.039-.008-.047-.008a.5.5 0 0 0-.125.032l-.078.015-.031.008h-.898q-.032 0-.11.008-.07 0-.156.008l-.164.015a1 1 0 0 0-.102.016.1.1 0 0 0-.023.016.1.1 0 0 0-.024.015q0 .008-.007.008-.157.492-.305 1-.14.508-.274 1.008-.03.125-.093.265a.7.7 0 0 0-.055.274q0 .101.047.203.054.102.101.18.024 0 .094.007.07.009.149.024l.148.016q.07.007.094.007.008 0 .047.016l.093.031a1 1 0 0 1 .094.032q.047.007.055.007.102.023.211.032.117.007.211.031a.32.32 0 0 1 .156.086q.063.054.063.179 0 .227-.102.274a.6.6 0 0 1-.266.047h-.414a.8.8 0 0 1-.172-.032l-.109-.015-.063-.008h-.921l-.071-.008-.109-.023-.109-.016-.063-.008h-.133a.465.465 0 0 0-.258.055h-.82a1 1 0 0 1-.078.031.2.2 0 0 1-.062.024h-.04a.4.4 0 0 1-.109-.024.7.7 0 0 1-.125-.062.4.4 0 0 1-.117-.078q-.055-.056-.055-.102m11.086-3.008q0-.062.024-.109a.25.25 0 0 0 .023-.109.3.3 0 0 0-.023-.118.3.3 0 0 1-.024-.132v-.133q0-.047.016-.125.015-.087.023-.156.016-.08.031-.133a1 1 0 0 0 .016-.071l.109-.093q0-.031.008-.118.016-.086.031-.179a5 5 0 0 1 .055-.289l.047-.094.078-.125.07-.125a1 1 0 0 0 .055-.094 1.02 1.02 0 0 0 .039-.195q.118-.273.313-.438.203-.171.422-.351l.062-.071a1 1 0 0 1 .078-.07q.274-.188.524-.258.257-.078.554-.14.235-.048.446-.094.219-.047.445-.047.328 0 .594.016.273.008.625.039a.2.2 0 0 1 .07.023.3.3 0 0 0 .094.024q.102.031.211.078l.218.094q.11.046.227.085a1 1 0 0 0 .234.032h.188a.6.6 0 0 0 .18-.047q.078-.024.101-.086.031-.063.133-.063.039 0 .063.04.03.03.046.085a.4.4 0 0 1 .032.094q.015.047.015.071v1.617a1 1 0 0 1-.008.101.3.3 0 0 1-.023.125.3.3 0 0 1-.055.117.13.13 0 0 1-.109.047q-.047 0-.117-.062l-.078-.078a3 3 0 0 1-.227-.446 3 3 0 0 0-.211-.437l-.039-.039a.2.2 0 0 0-.039-.031.1.1 0 0 1-.023-.032 1 1 0 0 1-.094-.078 1 1 0 0 0-.117-.101l-.118-.102a.4.4 0 0 1-.054-.062 1.1 1.1 0 0 0-.453-.235 5 5 0 0 1-.477-.164h-.391q-.257 0-.476.039a2 2 0 0 0-.414.11q-.196.07-.391.187-.195.11-.406.258a.38.38 0 0 0-.141.211.7.7 0 0 1-.093.234 4 4 0 0 0-.289.516 5 5 0 0 0-.235.57 6 6 0 0 0-.156.602 2.873 2.873 0 0 0 .047 1.312q.11.375.297.68.008.007.023.015.024.024.024.032l.039.062a2 2 0 0 1 .117.172q.023.039.031.055.015.015.031.078.024.054.024.07.015 0 .054.031.039.032.078.071a1 1 0 0 1 .071.062q.039.023.039.032.14.124.289.25a4 4 0 0 0 .32.218q.172.094.352.157.187.054.39.054.368 0 .618-.101a2 2 0 0 0 .539-.344l.07-.039a.5.5 0 0 0 .078-.055q0-.007.016-.094.015-.086.039-.101 0-.007.008-.039a.2.2 0 0 1 .031-.055v-1.555l-.094-.203q-.101 0-.219-.008a1.4 1.4 0 0 1-.211-.046.6.6 0 0 1-.164-.102.26.26 0 0 1-.062-.18v-.07q.008-.04.023-.047l.289-.094h1.508q.039 0 .117.008l.149.016.14.015h.079l.054.032q.047.015.094.047.047.023.086.047a.3.3 0 0 1 .07.046q.016 0 .024.039.015.032.015.047 0 .07-.078.094a1 1 0 0 1-.172.039 2 2 0 0 0-.195.031q-.094.016-.133.086-.015.063-.023.118a.7.7 0 0 0-.024.171q-.007.04-.015.125l-.016.164q-.007.087-.016.157a1 1 0 0 0-.007.093v.829q.023.015.054.062a1.3 1.3 0 0 1 .149.18q.031.04.047.062v.078a.44.44 0 0 1-.211.399.8.8 0 0 1-.203.086l-.219.062a.2.2 0 0 0-.055.016 1 1 0 0 0-.078.023l-.078.032a.2.2 0 0 0-.039.023 5 5 0 0 1-.5.141 2.1 2.1 0 0 0-.469.164h-1.586q-.016-.024-.094-.039a1 1 0 0 0-.109-.016 7 7 0 0 1-.719-.188 3.5 3.5 0 0 1-.679-.296 1.2 1.2 0 0 1-.258-.196 3 3 0 0 1-.219-.25l-.195-.273a7 7 0 0 0-.172-.266l-.11-.179-.07-.157a2 2 0 0 0-.055-.156l-.054-.195-.008-.008q-.007-.008-.016-.008l-.007-.008a.1.1 0 0 1-.024-.015.5.5 0 0 1-.047-.18 5 5 0 0 1-.023-.289l-.016-.297zm7.953 0q0-.062.024-.109a.25.25 0 0 0 .023-.109.3.3 0 0 0-.023-.118.3.3 0 0 1-.024-.132v-.133q0-.047.016-.125.015-.087.023-.156.016-.08.032-.133a1 1 0 0 0 .015-.071l.11-.093q0-.031.007-.118l.032-.179q.015-.094.031-.172.015-.086.023-.117l.047-.094.078-.125a6 6 0 0 1 .125-.219 1.02 1.02 0 0 0 .039-.195q.118-.273.313-.438.203-.171.422-.351l.062-.071a1 1 0 0 1 .078-.07q.274-.188.524-.258a7 7 0 0 1 .554-.14q.235-.048.446-.094.219-.047.445-.047.328 0 .594.016.273.008.625.039.024 0 .07.023a.3.3 0 0 0 .094.024q.102.031.211.078l.219.094q.11.046.226.085a1 1 0 0 0 .235.032h.187a.5.5 0 0 0 .18-.047q.078-.024.101-.086.031-.063.133-.063.039 0 .063.04.03.03.047.085a.4.4 0 0 1 .031.094q.015.047.015.071v1.617q0 .031-.007.101a.3.3 0 0 1-.024.125.3.3 0 0 1-.055.117.13.13 0 0 1-.109.047q-.047 0-.117-.062l-.078-.078a3 3 0 0 1-.227-.446 3 3 0 0 0-.211-.437l-.039-.039a.2.2 0 0 0-.039-.031.1.1 0 0 1-.023-.032 1 1 0 0 1-.094-.078 1 1 0 0 0-.117-.101l-.117-.102a.3.3 0 0 1-.055-.062 1.1 1.1 0 0 0-.453-.235 5 5 0 0 1-.477-.164h-.39q-.258 0-.477.039a2 2 0 0 0-.414.11q-.195.07-.391.187-.195.11-.406.258a.38.38 0 0 0-.141.211.7.7 0 0 1-.093.234 4 4 0 0 0-.289.516 5 5 0 0 0-.235.57 6 6 0 0 0-.156.602 2.873 2.873 0 0 0 .047 1.312q.11.375.297.68.008.007.023.015.024.024.024.032l.039.062q.031.04.062.086l.055.086q.023.039.031.055.016.015.031.078.024.054.024.07.015 0 .055.031.039.032.078.071a1 1 0 0 1 .07.062q.039.023.039.032.14.124.289.25a4 4 0 0 0 .32.218q.172.094.352.157.187.054.391.054.366 0 .617-.101.258-.102.539-.344l.07-.039a.5.5 0 0 0 .078-.055q0-.007.016-.094.015-.086.039-.101 0-.007.008-.039a.2.2 0 0 1 .031-.055v-1.555l-.094-.203q-.1 0-.219-.008a1.4 1.4 0 0 1-.21-.046.6.6 0 0 1-.164-.102.26.26 0 0 1-.063-.18v-.07q.008-.04.023-.047l.29-.094h1.507q.039 0 .117.008l.149.016.141.015h.078l.054.032a.4.4 0 0 1 .094.047q.047.023.086.047a.3.3 0 0 1 .07.046q.016 0 .024.039.015.032.015.047 0 .07-.078.094a1 1 0 0 1-.172.039 2 2 0 0 0-.195.031q-.093.016-.133.086-.015.063-.023.118a.7.7 0 0 0-.024.171q-.008.04-.015.125l-.016.164-.023.25v.829a.2.2 0 0 1 .054.062 1.3 1.3 0 0 1 .149.18q.031.04.047.062v.078a.44.44 0 0 1-.211.399.7.7 0 0 1-.203.086l-.219.062a.2.2 0 0 0-.055.016 1 1 0 0 0-.078.023l-.078.032a.2.2 0 0 0-.039.023 5 5 0 0 1-.5.141 2.1 2.1 0 0 0-.469.164h-1.586q-.015-.024-.094-.039a1 1 0 0 0-.109-.016 7 7 0 0 1-.719-.188 3.5 3.5 0 0 1-.679-.296 1.2 1.2 0 0 1-.258-.196 3 3 0 0 1-.219-.25l-.195-.273a6 6 0 0 0-.172-.266l-.109-.179-.071-.157a2 2 0 0 0-.054-.156l-.055-.195-.008-.008q-.007-.008-.016-.008l-.007-.008a.1.1 0 0 1-.024-.015.5.5 0 0 1-.047-.18 5 5 0 0 1-.023-.289l-.016-.297zm7.938 3.024q0-.172.14-.219.14-.055.313-.078.18-.032.336-.086.156-.056.187-.234 0-.055.008-.188l.016-.281.015-.274q.008-.132.008-.187v-.266q.008-.242.008-.554v-.633q.008-.328.008-.516 0-.11-.008-.39v-.602q0-.32-.008-.602v-.39q0-.032-.008-.11l-.015-.179-.016-.172-.008-.117a.26.26 0 0 0-.148-.204 1.2 1.2 0 0 0-.281-.117 12 12 0 0 1-.321-.101.6.6 0 0 1-.265-.172.1.1 0 0 1-.039-.039.2.2 0 0 1-.016-.047v-.039q0-.07.047-.117a.3.3 0 0 1 .117-.086.7.7 0 0 1 .149-.047.7.7 0 0 1 .14-.016h.039q.219.04.43.071t.445.031h.094q.188-.008.492-.016l.617-.015q.305-.008.532-.008l.265-.008q.04 0 .125-.008l.18-.016.172-.015a1 1 0 0 0 .109-.016l.039-.023q.047-.031.071-.031.03-.008.101-.024a1 1 0 0 1 .094-.015q.008.015.086.078.078.054.109.07.117.062.281.086t.282.109q.156.102.289.266a1.9 1.9 0 0 1 .398.765 1.4 1.4 0 0 1 .063.399q0 .219-.016.414-.015.195-.039.453a.33.33 0 0 0-.109.125 2 2 0 0 0-.094.195l-.094.204a.5.5 0 0 1-.164.21 2 2 0 0 1-.109.086l-.125.094a2 2 0 0 1-.188.102l-.156.07a4 4 0 0 0-.219.117.3.3 0 0 1-.055.039l-.07.039a.4.4 0 0 0-.07.055q-.031.024-.031.055 0 .007.031.031.031.015.07.047.04.023.07.055a.3.3 0 0 1 .055.039q0 .007.008.039a.5.5 0 0 1 .07.156l.094.094q.133.1.266.242.132.14.234.281.007.016.039.102a1 1 0 0 0 .047.093l.047.071.062.093q.031.048.055.094l.039.047.078.078q.063.063.133.141.078.07.141.133.07.061.093.078 0 .015.024.055.023.03.047.078l.047.078q.023.032.023.039.063.086.242.219.188.132.375.273.195.133.344.258.156.117.156.179 0 .087-.047.133a.3.3 0 0 1-.109.071.6.6 0 0 1-.141.031 1.4 1.4 0 0 1-.312 0 .7.7 0 0 1-.18-.047h-1.008a.8.8 0 0 1-.328-.07.7.7 0 0 1-.203-.18 2 2 0 0 1-.148-.242 1.6 1.6 0 0 0-.164-.281.5.5 0 0 0-.071-.102 2 2 0 0 0-.14-.172 3 3 0 0 0-.133-.164.5.5 0 0 1-.07-.101q-.024-.016-.063-.11l-.047-.14a.3.3 0 0 1-.039-.071q-.015-.062-.016-.07a1 1 0 0 1-.093-.086l-.133-.133a3 3 0 0 0-.125-.133.7.7 0 0 1-.078-.101q-.016-.008-.055-.086a1 1 0 0 1-.047-.11q-.008 0-.047-.039l-.078-.093a1 1 0 0 0-.086-.102l-.078-.094-.109-.125a.8.8 0 0 0-.125-.14.7.7 0 0 0-.133-.117.26.26 0 0 0-.148-.047h-.063q-.007.07-.016.257l-.015.399-.016.398a8 8 0 0 0-.008.258v.406q.008.188.024.368l.031.429.086.11q.024.007.094.015l.148.016q.086 0 .156.008h.094l.117.039a.56.56 0 0 1 .258.156.14.14 0 0 1 .055.109q0 .11-.141.141-.046.007-.156.016l-.234.031q-.126.015-.235.031-.11.016-.156.024h-.039l-.11-.055a.4.4 0 0 1-.085-.047h-.891a.3.3 0 0 0-.148.055 1 1 0 0 1-.071.047q-.055.039-.07.039-.017 0-.078-.047a.3.3 0 0 0-.078-.039h-.032a.46.46 0 0 0-.211.047.37.37 0 0 1-.203.054.1.1 0 0 1-.047-.008.1.1 0 0 0-.031-.007.3.3 0 0 1-.109-.032.6.6 0 0 1-.242-.148.18.18 0 0 1-.047-.117m2.351-3.532q.063.157.188.204a.959.959 0 0 0 .812-.11q.25-.164.43-.398.18-.243.281-.524.102-.289.102-.546 0-.211-.039-.43a1 1 0 0 0-.156-.414l-.094-.086-.133-.133a1.4 1.4 0 0 0-.141-.125.6.6 0 0 0-.125-.102l-.07-.031a.3.3 0 0 0-.078-.031.2.2 0 0 0-.055-.016l-.047-.031a1 1 0 0 0-.07-.047.3.3 0 0 0-.078-.047.14.14 0 0 0-.055-.023h-.078q-.289 0-.437.125-.14.125-.157.406-.007.024-.015.18-.009.148-.016.344l-.016.39q-.007.195-.007.313v.148q0 .047.007.195l.016.297.016.305q.007.14.015.187m7.469 3.633h-.039a1 1 0 0 0-.117.024 1 1 0 0 0-.125.031h-1.805l-.039-.055a.4.4 0 0 1-.055-.086v-.047q0-.1.079-.156a.6.6 0 0 1 .195-.078 1.5 1.5 0 0 1 .226-.031.7.7 0 0 0 .18-.031 1 1 0 0 0 .125-.086.5.5 0 0 0 .109-.11.4.4 0 0 0 .016-.086 1.3 1.3 0 0 0 .031-.273 1.67 1.67 0 0 1 .071-.399 1.2 1.2 0 0 0 .047-.32v-.93q0-.007.007-.046a.3.3 0 0 0 .008-.078q.008-.04.016-.071.008-.038.008-.047v-.047q0-.039-.016-.132l-.023-.133-.032-1.852-.008-.14v-1.227a.3.3 0 0 0-.046-.086 2 2 0 0 0-.079-.109.37.37 0 0 0-.211-.141 3 3 0 0 0-.304-.094 2 2 0 0 1-.281-.093q-.118-.055-.118-.157 0-.07.039-.109a.391.391 0 0 1 .235-.078q.07-.008.117-.008h.094q.031 0 .125.008.094 0 .187.008l.188.015q.094 0 .133.008l.046.055h.055a.2.2 0 0 1 .07-.031.3.3 0 0 1 .079-.024h.929q.032 0 .125-.008.094-.016.11-.031h2.164q.015.016.07.031a1 1 0 0 0 .078.008h.539a.37.37 0 0 1 .242.109.8.8 0 0 1 .149.243v.578q0 .015.023.101a1 1 0 0 1 .032.094v.07q0 .031-.016.118a1 1 0 0 1-.031.179.7.7 0 0 1-.063.157q-.032.07-.078.07h-.008a1.24 1.24 0 0 1-.398-.492.6.6 0 0 0-.055-.102 1.2 1.2 0 0 0-.117-.219 1.3 1.3 0 0 0-.18-.226.9.9 0 0 0-.226-.164.5.5 0 0 0-.25-.071h-1.68a.16.16 0 0 0-.141-.054h-.054l-.11.054a.2.2 0 0 0-.086.055q-.007 0-.015.039a1 1 0 0 1-.008.078.4.4 0 0 1-.008.078q0 .031-.008.04 0 .015-.023.054a.2.2 0 0 1-.031.047q0 .078-.008.266l-.016.398a35 35 0 0 1-.031.649v.289q.007.046.015.148l.016.211.016.203q.008.094.008.133.03.024.101.055l.141.047q.078.023.148.039.07.007.11.007h.093q.196-.015.391-.023a1.3 1.3 0 0 0 .367-.063.7.7 0 0 0 .297-.179.68.68 0 0 0 .188-.469l.015-.148.016-.149q.008-.07.008-.101a.33.33 0 0 1 .132-.125q.102-.07.172-.071.118 0 .172.094.055.086.055.188 0 .085-.008.156 0 .07-.031.156v1.562a.3.3 0 0 1 .031.126q.008.062.008.124v.352a.4.4 0 0 1-.047.203q-.039.086-.195.086a.24.24 0 0 1-.196-.086.7.7 0 0 1-.109-.234 3 3 0 0 1-.063-.297 2 2 0 0 0-.062-.297.6.6 0 0 0-.094-.227q-.055-.093-.172-.093h-.086a2.942 2.942 0 0 1-.226.031q-.078.007-.141.016l-.07.007h-.547a.45.45 0 0 0-.234.118.5.5 0 0 0-.133.195 1 1 0 0 0-.063.242 5 5 0 0 0-.008.274v.273a1 1 0 0 1-.007.094.5.5 0 0 0-.008.086q0 .015-.024.093a1 1 0 0 0-.023.094v.656q0 .18.016.336.015.157.086.336a.8.8 0 0 0 .359.118q.18.008.375.023.031 0 .141.016.109.015.234.039.125.023.234.039.11.015.141.015h.43q0 .008.039.047a.3.3 0 0 0 .07.039h.039a.2.2 0 0 0 .047-.023l.031-.016a.1.1 0 0 1 .024-.008q.015 0 .046.047l.047.055h.055a.2.2 0 0 1 .016-.055q.015-.047.039-.047h.039q.468-.273.789-.679.32-.407.625-.836l.023-.008q.008 0 .008.008h.024q.007 0 .039.039a.3.3 0 0 1 .046.055v.343q0 .047-.015.172-.016.125-.031.266a4 4 0 0 1-.024.265q-.015.126-.015.172a.3.3 0 0 0-.063.133 1 1 0 0 1-.023.141.6.6 0 0 1-.032.125.2.2 0 0 1-.078.101q-.047 0-.179.008-.125 0-.266.008l-.266.016q-.124.007-.172.007-.008 0-.054.016L266 128a1 1 0 0 1-.094.039q-.038.016-.047.016a1.164 1.164 0 0 0-.195-.055h-.031q-.18 0-.367.023a2.4 2.4 0 0 1-.391.032 6 6 0 0 1-.797-.055 6 6 0 0 0-.789-.055m5.18-3.125a.25.25 0 0 1 .023-.109.24.24 0 0 0 .024-.109.3.3 0 0 0-.024-.118.3.3 0 0 1-.023-.132v-.133a1 1 0 0 1 .015-.125q.017-.087.024-.156.015-.08.031-.133.015-.062.016-.071l.109-.093q0-.031.008-.118l.031-.179a11 11 0 0 1 .055-.289l.047-.094.078-.125.07-.125q.039-.063.055-.094a.5.5 0 0 0 .023-.094 1 1 0 0 0 .016-.101 1.16 1.16 0 0 1 .312-.438q.204-.171.422-.351l.063-.071a.5.5 0 0 1 .078-.07q.274-.188.523-.258.258-.078.555-.14.235-.048.445-.094.22-.047.446-.047.327 0 .593.016.274.008.625.039.024 0 .071.023a.2.2 0 0 0 .093.024q.102.031.211.078l.219.094q.11.046.227.085a1 1 0 0 0 .234.032h.188a.5.5 0 0 0 .179-.047q.078-.024.102-.086.031-.063.133-.063.038 0 .062.04.032.03.047.085a.3.3 0 0 1 .031.094.2.2 0 0 1 .016.071v1.617q0 .031-.008.101a.4.4 0 0 1-.023.125.4.4 0 0 1-.055.117.13.13 0 0 1-.109.047q-.048 0-.118-.062l-.078-.078a3 3 0 0 1-.226-.446 3.4 3.4 0 0 0-.211-.437l-.039-.039a.3.3 0 0 0-.039-.031.1.1 0 0 1-.024-.032 1 1 0 0 1-.094-.078 1 1 0 0 0-.117-.101l-.117-.102a.4.4 0 0 1-.055-.062 1.1 1.1 0 0 0-.453-.235 5 5 0 0 1-.476-.164h-.391q-.258 0-.477.039a2 2 0 0 0-.414.11q-.195.07-.39.187a5 5 0 0 0-.406.258.38.38 0 0 0-.141.211.7.7 0 0 1-.094.234q-.156.234-.289.516a5 5 0 0 0-.234.57 6 6 0 0 0-.156.602 3 3 0 0 0-.055.57q0 .36.101.742.11.375.297.68.007.007.024.015.023.024.023.032l.039.062a1.3 1.3 0 0 1 .117.172l.032.055q.015.015.031.078a.3.3 0 0 1 .023.07q.016 0 .055.031.039.032.078.071.04.031.07.062.039.023.039.032.141.124.29.25.155.117.32.218.172.094.351.157.188.054.391.054.368 0 .617-.101a2 2 0 0 0 .539-.344l.071-.039a1 1 0 0 0 .078-.055l.015-.094q.017-.086.039-.101 0-.007.008-.039a.2.2 0 0 1 .031-.055v-1.555l-.093-.203a3 3 0 0 1-.219-.008 1.4 1.4 0 0 1-.211-.046.6.6 0 0 1-.164-.102.26.26 0 0 1-.063-.18v-.07q.009-.04.024-.047l.289-.094h1.508q.039 0 .117.008l.148.016.141.015h.078l.055.032q.046.015.094.047.047.023.086.047a.3.3 0 0 1 .07.046q.015 0 .023.039a.1.1 0 0 1 .016.047q0 .07-.078.094a1 1 0 0 1-.172.039 1.4 1.4 0 0 0-.195.031q-.094.016-.133.086a1 1 0 0 0-.024.118.7.7 0 0 0-.023.171q-.007.04-.016.125l-.015.164-.016.157-.008.093v.829a.2.2 0 0 1 .055.062 1.3 1.3 0 0 1 .148.18l.047.062v.078a.45.45 0 0 1-.062.25.5.5 0 0 1-.149.149.7.7 0 0 1-.203.086l-.219.062a.2.2 0 0 0-.054.016 1 1 0 0 0-.078.023l-.078.032a.2.2 0 0 0-.04.023 5 5 0 0 1-.5.141 2.2 2.2 0 0 0-.468.164h-1.586q-.016-.024-.094-.039a1 1 0 0 0-.109-.016 7 7 0 0 1-.719-.188 3.5 3.5 0 0 1-.68-.296 1.2 1.2 0 0 1-.258-.196 2.4 2.4 0 0 1-.218-.25l-.196-.273a5 5 0 0 0-.172-.266l-.109-.179-.07-.157a2 2 0 0 0-.055-.156l-.055-.195-.007-.008q-.009-.008-.016-.008l-.008-.008a.1.1 0 0 1-.023-.015.45.45 0 0 1-.047-.18 5 5 0 0 1-.024-.289l-.015-.297zm7.133 2.953q0-.14.07-.211a.5.5 0 0 1 .164-.109 1 1 0 0 1 .211-.07.6.6 0 0 0 .195-.094 1 1 0 0 0 .086-.055l.125-.093q.063-.048.109-.079.048-.039.047-.046a.2.2 0 0 0 .055-.071 1 1 0 0 1 .055-.07q0-.015.023-.063l.047-.093q.024-.047.047-.086a.2.2 0 0 0 .023-.063q.063-.085.133-.172.07-.085.117-.171a3 3 0 0 0 .227-.555q.086-.289.219-.563l.039-.086q.031-.078.07-.156a2 2 0 0 0 .078-.156.4.4 0 0 1 .055-.086q0-.007.008-.039l.015-.078.016-.078a.4.4 0 0 0 .008-.055.2.2 0 0 1 .015-.055l.047-.093.055-.086.031-.063v-.203a.3.3 0 0 1 .016-.055l.031-.07q0-.016.047-.055t.062-.039q.08-.14.118-.265.039-.126.078-.235a.8.8 0 0 1 .109-.218.8.8 0 0 1 .219-.211q0-.024.008-.071a1 1 0 0 0 .008-.094.4.4 0 0 0-.063-.218.5.5 0 0 1-.055-.235v-.015q0-.047.016-.141.024-.094.039-.187.016-.095.031-.164a1 1 0 0 0 .016-.102q.015-.015.023-.086.016-.078.071-.109l.148-.039q.117-.04.156-.055a1 1 0 0 0 .149-.149q.078-.085.148-.156a1 1 0 0 1 .172-.133.45.45 0 0 1 .227-.054h.086q.117.14.171.289.063.141.094.297.032.156.047.32.024.156.055.328.023.008.062.086a.3.3 0 0 1 .047.094q.063.172.078.351.024.172.063.328.062.25.14.493.078.242.164.492.079.258.149.469.07.203.14.507.024.087.04.196l.046.226.047.219a.7.7 0 0 0 .063.172q0 .031.062.109l.086.086q0 .016.008.063.016.039.031.094a1 1 0 0 1 .039.093l.024.055q0 .007.015.055a1 1 0 0 1 .047.086.4.4 0 0 1 .047.093q.024.048.024.055.03.094.062.211.031.117.055.242.031.117.07.234.039.11.102.188a.7.7 0 0 0 .125.125q.078.063.148.141a.7.7 0 0 1 .117.156.3.3 0 0 1 .055.172v.039a.3.3 0 0 1-.008.062q-.008.032-.047.039a.2.2 0 0 1-.054.016l-.086.016-.086.015a.4.4 0 0 1-.063.008h-1.508q-.03 0-.148-.016l-.242-.031q-.133-.016-.25-.031a1 1 0 0 0-.133-.023h-.117q0-.196.125-.29a1.7 1.7 0 0 1 .273-.179q.156-.087.281-.188.133-.109.133-.32a1 1 0 0 0-.015-.078.754.754 0 0 0-.024-.141 10.986 10.986 0 0 0-.086-.328.7.7 0 0 0-.047-.133l-.078-.242a.7.7 0 0 0-.093-.211.54.54 0 0 0-.164-.156.6.6 0 0 0-.243-.086h-1.078l-.117.023-.164.016q-.078.007-.148.016h-.094a.7.7 0 0 0-.242.101.32.32 0 0 0-.149.196 1 1 0 0 0-.047.156l-.047.203-.039.18a1 1 0 0 0-.015.093q0 .016-.016.133a3 3 0 0 0-.008.172v.047a.5.5 0 0 1 .008.086 1 1 0 0 1 .008.094.4.4 0 0 1 .008.054.7.7 0 0 0 .172.133q.117.07.234.149.117.07.211.148.094.079.109.148a.16.16 0 0 1-.047.133.525.525 0 0 1-.281.149.5.5 0 0 1-.133.023.4.4 0 0 1-.156-.031.5.5 0 0 0-.156-.024h-.055a.3.3 0 0 0-.078.024.2.2 0 0 1-.07.031h-.446a.6.6 0 0 0-.14.039h-.11q-.007 0-.086-.023a1 1 0 0 0-.078-.016h-.593q-.25-.031-.25-.266m2.57-3.171v.023a.03.03 0 0 1 .008.023.1.1 0 0 0 .023.032.1.1 0 0 0 .024.039l.14.117q.094.07.11.078h.39q.016 0 .047.031.032.024.047.024h.406q.102-.008.195-.024a.5.5 0 0 0 .165-.054q.078-.048.078-.118v-.054a.2.2 0 0 1-.024-.039.5.5 0 0 0-.039-.078l-.031-.079a.2.2 0 0 1-.016-.054 7 7 0 0 0-.148-.391l-.141-.367a2 2 0 0 1-.062-.188.4.4 0 0 0-.078-.171.4.4 0 0 1-.055-.04 1 1 0 0 0-.086-.078.6.6 0 0 0-.078-.078q-.031-.032-.031-.039a.2.2 0 0 1-.071-.101q-.015-.055-.101-.055h-.024a1.8 1.8 0 0 1-.187.469 3 3 0 0 0-.211.445 1 1 0 0 1-.024.141q-.015.101-.031.109a.4.4 0 0 1-.039.102l-.07.125-.063.132a.4.4 0 0 0-.023.118m6.406 3.132q0-.086.094-.179a.4.4 0 0 1 .203-.11l.789-.101q.039 0 .102-.086.062-.086.093-.149v-.398a9 9 0 0 0-.023-.672q-.015-.336-.016-.687v-.11q.032-.382.032-.781.007-.399.007-.805v-.929a4 4 0 0 1-.023-.305q0-.188-.008-.36l-.016-.414-.054-.039-.102-.007a5 5 0 0 0-.211-.016l-.257-.016-.204-.015h-.25q-.039 0-.132.007a3 3 0 0 0-.375.032 1 1 0 0 0-.125.015.2.2 0 0 0-.055.016.1.1 0 0 0-.047.023l-.086.063a.4.4 0 0 1-.062.039l-.04.062a1 1 0 0 1-.062.11l-.062.109-.032.063a.6.6 0 0 0-.07.101l-.047.063-.023.031a.5.5 0 0 0-.063.086l-.086.133-.086.133-.054.086a.25.25 0 0 1-.102.046h-.086a.6.6 0 0 1-.101-.007q-.04-.016-.055-.078v-.383q0-.36.078-.688.086-.336.117-.695.016-.063.07-.078a.3.3 0 0 1 .102-.024h.172q.007 0 .039.055.039.047.055.047.03.016.117.031a1 1 0 0 0 .125.016h1.078q.102.038.133.047h.211q.039 0 .203-.008l.351-.016.563-.023h2.82l.063-.008q.047-.016.101-.031.055-.016.102-.032l.078-.023a.3.3 0 0 0 .062-.063q.032-.039.071-.078a.4.4 0 0 1 .086-.078.2.2 0 0 1 .109-.031.2.2 0 0 1 .133.047.3.3 0 0 1 .086.117.4.4 0 0 1 .054.141.5.5 0 0 1 .024.14q.007.04.016.11l.015.132.016.126.008.062v1.133a.5.5 0 0 1-.063.109q-.031.031-.125.031h-.062a.6.6 0 0 1-.094-.085 3 3 0 0 0-.102-.11l-.062-.101-.102-.165a3 3 0 0 0-.109-.171 1 1 0 0 0-.07-.102 1 1 0 0 0-.071-.078 2.23 2.23 0 0 0-.234-.234l-.078-.079a1 1 0 0 1-.188-.054.6.6 0 0 0-.203-.039h-.055a1 1 0 0 0-.093.031 1 1 0 0 1-.102.023h-.055a.6.6 0 0 0-.109-.023 2 2 0 0 0-.203-.039 1.3 1.3 0 0 0-.195-.031 1 1 0 0 0-.118-.016h-.093q-.227 0-.297.156a.8.8 0 0 0-.07.344q0 .141.007.281.016.134.016.242l-.008.063-.015.094-.016.093a.4.4 0 0 0-.008.055q0 .04.008.188l.016.312.023.524v1.445q.007.102.016.351l.031.532q.015.28.023.531.016.242.024.344a.37.37 0 0 0 .164.156q.117.054.25.094l.281.062q.141.023.258.071.117.039.187.109a.24.24 0 0 1 .078.187.24.24 0 0 1-.07.18.45.45 0 0 1-.172.094.8.8 0 0 1-.203.054 1 1 0 0 1-.18.016.4.4 0 0 1-.101-.031.5.5 0 0 0-.102-.024 7 7 0 0 0-.289-.039h-.781a1 1 0 0 0-.07-.023.2.2 0 0 0-.063-.023l-.054.007-.102.016-.109.016a1 1 0 0 1-.079.007 2.3 2.3 0 0 1-.429.063q-.195.015-.446.031a1 1 0 0 0-.085.008l-.126.016a1 1 0 0 1-.187.031.18.18 0 0 1-.117-.047.6.6 0 0 1-.094-.102 1 1 0 0 1-.062-.132.4.4 0 0 1-.024-.118m6.461-3.211q0-.14.031-.359.032-.219.086-.445.055-.235.125-.446a2.5 2.5 0 0 1 .157-.351q.086-.156.195-.266.117-.117.25-.273a.56.56 0 0 0 .117-.211.56.56 0 0 1 .117-.211 1 1 0 0 1 .102-.109 1 1 0 0 1 .109-.102.6.6 0 0 1 .133-.039q.195-.102.32-.242.133-.149.321-.258.327-.18.726-.234t.774-.055a.27.27 0 0 1 .171.062.6.6 0 0 0 .25.102l.118.016q.07 0 .125.007a.4.4 0 0 1 .078.016.3.3 0 0 1 .07.023l.078.024.07.039a1 1 0 0 1 .118.062l.117.063q.063.032.086.039.101.039.242.078.149.031.242.102a.2.2 0 0 1 .047.047q.039.038.078.086a.6.6 0 0 1 .078.078q.04.03.047.039l.039.031q.039.015.078.047l.078.047.055.031q.234.187.399.469.171.28.273.609.11.32.156.656.055.329.055.617v.219q-.015.078-.023.219l-.016.266q-.007.132-.016.234v.109l-.039.125a3 3 0 0 1-.062.211 5 5 0 0 1-.086.235 3 3 0 0 1-.063.164l-.031.062-.039.094-.047.094q-.024.039-.023.054a.2.2 0 0 1-.032.071.2.2 0 0 0-.023.078 4 4 0 0 1-.242.289 14 14 0 0 0-.242.297q-.024.015-.078.055-.055.039-.071.039-.023.039-.062.039a4.113 4.113 0 0 1-.227.195l-.133.101-.062.055a.4.4 0 0 1-.149.063.6.6 0 0 0-.156.031.2.2 0 0 1-.039.023l-.062.032-.063.031-.031.008a.3.3 0 0 0-.055.015l-.109.016a1 1 0 0 0-.11.023.4.4 0 0 1-.062.008.4.4 0 0 0-.125.039 1 1 0 0 0-.117.055h-1.149a2 2 0 0 1-.328-.039 2.806 2.806 0 0 1-.117-.055l-.07-.039q-.031-.024-.039-.023h-.047l-.086-.016-.117-.023q-.016 0-.079-.047-.062-.047-.078-.047a.3.3 0 0 0-.093-.047q-.07-.031-.102-.047a2.4 2.4 0 0 1-.367-.219 3 3 0 0 1-.344-.312 4 4 0 0 1-.289-.359 2 2 0 0 1-.211-.383 1 1 0 0 1-.039-.133q-.015-.102-.016-.117l-.046-.071a1 1 0 0 0-.055-.086 2.4 2.4 0 0 1-.133-.304 4.866 4.866 0 0 1-.188-.735 3 3 0 0 1-.023-.336m1.422.196v.461q0 .061.031.195.031.133.07.281.04.141.079.266a.8.8 0 0 0 .07.172 1 1 0 0 0 .047.094q.046.062.094.14.054.07.093.141.048.061.055.078.008.015.031.078.031.055.063.117.031.063.054.125a.4.4 0 0 0 .047.071q0 .008.032.039l.062.062a.4.4 0 0 1 .063.063l.039.031q.062.07.14.203a.6.6 0 0 0 .164.18q.008.015.086.039.087.015.11.023.156.063.297.102.148.031.328.031.14 0 .234-.031a.7.7 0 0 0 .18-.102 1.4 1.4 0 0 0 .164-.14q.086-.087.203-.172a.5.5 0 0 0 .164-.196q.055-.117.133-.226.07-.117.156-.227.094-.11.172-.219a.3.3 0 0 0 .039-.078.13.13 0 0 0 .016-.054.3.3 0 0 0 .007-.071 1 1 0 0 1 .032-.101q.007 0 .031-.047.032-.055.062-.125l.063-.141.055-.117.015-.039.016-.031a1.168 1.168 0 0 0 .039-.164l.031-.188q.016-.093.024-.164a1 1 0 0 0 .015-.094v-.515q0-.406-.039-.828a2.9 2.9 0 0 0-.195-.813 6 6 0 0 0-.281-.555 1.4 1.4 0 0 0-.414-.468l-.102-.047a3 3 0 0 0-.188-.094 2 2 0 0 0-.179-.094 1 1 0 0 0-.11-.054.2.2 0 0 0-.047-.032.5.5 0 0 0-.078-.046 1 1 0 0 0-.078-.04.2.2 0 0 0-.047-.023q0-.016-.047-.016h-.054a1.2 1.2 0 0 0-.563.133 1.8 1.8 0 0 0-.453.328 2.7 2.7 0 0 0-.367.461 4 4 0 0 0-.273.508 4 4 0 0 0-.297.945 5.2 5.2 0 0 0-.094.985m6.445 3.125q0-.172.141-.219a1.4 1.4 0 0 1 .312-.078q.18-.032.336-.086.156-.056.188-.234 0-.055.008-.188l.015-.281.016-.274q.008-.132.008-.187v-.266q.008-.242.008-.554v-.633q.007-.328.007-.516 0-.11-.007-.39v-.602q0-.32-.008-.602v-.39q0-.032-.008-.11l-.016-.179-.015-.172a1 1 0 0 1-.008-.117.27.27 0 0 0-.149-.204 1.2 1.2 0 0 0-.281-.117 12 12 0 0 1-.32-.101.6.6 0 0 1-.266-.172.14.14 0 0 1-.039-.039.3.3 0 0 1-.016-.047v-.039q0-.07.047-.117a.3.3 0 0 1 .118-.086.7.7 0 0 1 .148-.047.7.7 0 0 1 .141-.016h.039q.219.04.429.071.211.03.446.031h.093q.187-.008.493-.016l.617-.015q.304-.008.531-.008l.266-.008q.038 0 .125-.008l.179-.016.172-.015a1 1 0 0 0 .11-.016l.039-.023q.046-.031.07-.031.032-.008.102-.024a1 1 0 0 1 .093-.015q.008.015.086.078.078.054.11.07.117.062.281.086a.6.6 0 0 1 .281.109q.156.102.289.266.141.164.242.359t.157.406q.062.212.062.399 0 .219-.016.414-.015.195-.039.453a.35.35 0 0 0-.109.125 3 3 0 0 0-.094.195l-.093.204a.6.6 0 0 1-.094.148l-.071.062a10.202 10.202 0 0 1-.234.18l-.094.055a.4.4 0 0 1-.093.047l-.157.07a4 4 0 0 0-.218.117.3.3 0 0 1-.055.039l-.07.039a.4.4 0 0 0-.071.055q-.031.024-.031.055 0 .007.031.031.032.015.071.047a.3.3 0 0 1 .07.055.3.3 0 0 1 .055.039q0 .007.007.039.016.023.032.054a.3.3 0 0 1 .023.063.1.1 0 0 1 .016.039l.094.094q.133.1.265.242.133.14.235.281.007.016.039.102a1 1 0 0 0 .046.093l.047.071.063.093q.031.048.055.094.03.04.039.047l.078.078q.062.063.133.141.077.07.14.133.07.061.094.078 0 .015.023.055a.4.4 0 0 1 .047.078l.047.078q.024.032.023.039.063.086.243.219.187.132.375.273.195.133.343.258.157.117.157.179 0 .087-.047.133a.3.3 0 0 1-.11.071.6.6 0 0 1-.14.031 1.5 1.5 0 0 1-.313 0 .7.7 0 0 1-.179-.047h-1.008a.8.8 0 0 1-.328-.07.7.7 0 0 1-.203-.18 2 2 0 0 1-.149-.242 1.5 1.5 0 0 0-.164-.281 2.664 2.664 0 0 0-.344-.438.5.5 0 0 1-.07-.101q-.023-.016-.063-.11l-.046-.14a.2.2 0 0 1-.039-.071 1 1 0 0 1-.016-.07 1 1 0 0 1-.094-.086l-.133-.133a3 3 0 0 0-.125-.133 1 1 0 0 1-.078-.101q-.015-.008-.054-.086a1 1 0 0 1-.047-.11q-.008 0-.047-.039l-.078-.093a1 1 0 0 0-.086-.102l-.078-.094-.11-.125a.8.8 0 0 0-.125-.14.7.7 0 0 0-.133-.117.26.26 0 0 0-.148-.047h-.063q-.007.07-.015.257l-.016.399-.015.398a6 6 0 0 0-.008.258v.406q.008.188.023.368.016.203.031.429l.086.11q.024.007.094.015l.149.016q.085 0 .156.008h.094l.117.039a.5.5 0 0 1 .14.062.5.5 0 0 1 .118.094.14.14 0 0 1 .054.109q0 .11-.14.141-.048.007-.157.016l-.234.031-.234.031q-.11.016-.157.024h-.039l-.109-.055a.4.4 0 0 1-.086-.047h-.891a.33.33 0 0 0-.148.055 1 1 0 0 1-.07.047q-.055.039-.071.039t-.078-.047a.2.2 0 0 0-.078-.039h-.031a.46.46 0 0 0-.211.047.37.37 0 0 1-.203.054.1.1 0 0 1-.047-.008.1.1 0 0 0-.031-.007.3.3 0 0 1-.11-.032.6.6 0 0 1-.242-.148.18.18 0 0 1-.047-.117m2.352-3.532a.33.33 0 0 0 .187.204.964.964 0 0 0 .813-.11q.25-.164.43-.398a2 2 0 0 0 .281-.524q.1-.289.101-.546 0-.211-.039-.43a1 1 0 0 0-.156-.414l-.094-.086-.133-.133a1.3 1.3 0 0 0-.14-.125 1 1 0 0 0-.086-.078q0-.008-.039-.024l-.071-.031a.3.3 0 0 0-.078-.031.2.2 0 0 0-.054-.016l-.047-.031a1 1 0 0 0-.071-.047.3.3 0 0 0-.078-.047.14.14 0 0 0-.054-.023h-.078q-.29 0-.438.125-.141.125-.156.406a1 1 0 0 0-.016.18l-.015.344a36 36 0 0 0-.024.703v.148q0 .047.008.195l.016.297.015.305q.008.14.016.187"/></svg>