<?xml version="1.0" encoding="UTF-8"?>
<!DOCTYPE svg PUBLIC "-//W3C//DTD SVG 1.1//EN" "http://www.w3.org/Graphics/SVG/1.1/DTD/svg11.dtd">
<svg xmlns="http://www.w3.org/2000/svg" version="1.1" width="256px" height="256px" style="shape-rendering:geometricPrecision; text-rendering:geometricPrecision; image-rendering:optimizeQuality; fill-rule:evenodd; clip-rule:evenodd" xmlns:xlink="http://www.w3.org/1999/xlink">
<g><path style="opacity:0.971" fill="#bec2c6" d="M 144.5,41.5 C 153.642,39.7314 158.975,43.3981 160.5,52.5C 146.101,103.529 131.601,154.529 117,205.5C 113.489,212.562 107.989,214.728 100.5,212C 95.7886,207.86 94.2886,202.694 96,196.5C 110.155,147.545 124.155,98.5448 138,49.5C 139.305,46.0386 141.471,43.372 144.5,41.5 Z"/></g>
<g><path style="opacity:0.983" fill="#bfc3c7" d="M 60.5,73.5 C 71.3209,73.4882 75.8209,78.8216 74,89.5C 62.0154,102.318 49.8488,114.985 37.5,127.5C 49.8488,140.015 62.0154,152.682 74,165.5C 75.326,178.176 69.826,183.01 57.5,180C 42.3333,164.833 27.1667,149.667 12,134.5C 8.66667,129.833 8.66667,125.167 12,120.5C 27.7821,104.214 43.9488,88.5478 60.5,73.5 Z"/></g>
<g><path style="opacity:0.968" fill="#bfc3c6" d="M 188.5,73.5 C 191.607,73.3512 194.607,73.8512 197.5,75C 212.667,90.1667 227.833,105.333 243,120.5C 246.333,125.167 246.333,129.833 243,134.5C 227.833,149.667 212.667,164.833 197.5,180C 185.174,183.01 179.674,178.176 181,165.5C 192.985,152.682 205.151,140.015 217.5,127.5C 205.848,115.347 194.014,103.347 182,91.5C 178.426,83.2398 180.593,77.2398 188.5,73.5 Z"/></g>
</svg>
