<?xml version="1.0" encoding="UTF-8"?>
<!DOCTYPE svg PUBLIC "-//W3C//DTD SVG 1.1//EN" "http://www.w3.org/Graphics/SVG/1.1/DTD/svg11.dtd">
<svg xmlns="http://www.w3.org/2000/svg" version="1.1" width="256px" height="256px" style="shape-rendering:geometricPrecision; text-rendering:geometricPrecision; image-rendering:optimizeQuality; fill-rule:evenodd; clip-rule:evenodd" xmlns:xlink="http://www.w3.org/1999/xlink">
<g><path style="opacity:0.993" fill="#8d9094" d="M 75.5,-0.5 C 110.167,-0.5 144.833,-0.5 179.5,-0.5C 204.459,7.96673 215.292,25.3001 212,51.5C 207.527,69.3067 196.36,80.4734 178.5,85C 197.786,89.2855 209.286,101.119 213,120.5C 215.345,138.152 209.512,152.319 195.5,163C 176.809,173.82 158.809,172.82 141.5,160C 135.675,154.185 131.509,147.352 129,139.5C 128.958,167.54 128.291,195.54 127,223.5C 122.21,240.457 111.377,251.124 94.5,255.5C 88.1667,255.5 81.8333,255.5 75.5,255.5C 47.3606,245.223 37.1939,225.556 45,196.5C 51.4251,182.357 62.2584,173.524 77.5,170C 55.2121,164.546 43.2121,150.379 41.5,127.5C 43.2218,104.613 55.2218,90.4458 77.5,85C 54.9506,79.4539 42.9506,65.1206 41.5,42C 42.7419,19.6511 54.0752,5.48443 75.5,-0.5 Z M 128.5,85.5 C 138.506,85.3335 148.506,85.5002 158.5,86C 143.333,90.5 133.5,100.333 129,115.5C 128.5,105.506 128.334,95.5056 128.5,85.5 Z"/></g>
</svg>
