<svg width="42" height="29" viewBox="0 0 42 29" fill="none" xmlns="http://www.w3.org/2000/svg">
<path d="M22.912 9.088C22.912 7.65866 23.4347 6.45333 24.48 5.472C25.504 4.49067 26.752 4 28.224 4C29.7387 4 30.9973 4.49067 32 5.472C32.9813 6.45333 33.472 7.65866 33.472 9.088C33.472 9.77067 33.376 10.496 33.184 11.264C32.992 12.032 32.608 13.024 32.032 14.24L27.072 24.704H22.272L24.928 13.12C24.3307 12.6933 23.8507 12.128 23.488 11.424C23.104 10.7413 22.912 9.96267 22.912 9.088ZM8.672 9.088C8.672 7.65866 9.19467 6.45333 10.24 5.472C11.2853 4.49067 12.5333 4 13.984 4C15.456 4 16.704 4.49067 17.728 5.472C18.7307 6.45333 19.232 7.65866 19.232 9.088C19.232 9.77067 19.136 10.496 18.944 11.264C18.752 12.032 18.3573 13.024 17.76 14.24L12.768 24.704H8L10.688 13.12C10.0693 12.6933 9.57867 12.128 9.216 11.424C8.85333 10.7413 8.672 9.96267 8.672 9.088Z" fill="#8D9094"/>
</svg>
