<?xml version="1.0" encoding="UTF-8"?>
<!DOCTYPE svg PUBLIC "-//W3C//DTD SVG 1.1//EN" "http://www.w3.org/Graphics/SVG/1.1/DTD/svg11.dtd">
<svg xmlns="http://www.w3.org/2000/svg" version="1.1" width="256px" height="256px" style="shape-rendering:geometricPrecision; text-rendering:geometricPrecision; image-rendering:optimizeQuality; fill-rule:evenodd; clip-rule:evenodd" xmlns:xlink="http://www.w3.org/1999/xlink">
<g><path style="opacity:0.989" fill="#8d9094" d="M 255.5,27.5 C 255.5,32.1667 255.5,36.8333 255.5,41.5C 242.72,99.3051 230.22,157.305 218,215.5C 217.101,220.764 215.435,225.764 213,230.5C 210.735,233.466 207.735,234.799 204,234.5C 200.643,234.406 197.477,233.573 194.5,232C 174.911,217.622 155.411,203.122 136,188.5C 125.804,199.03 115.304,209.197 104.5,219C 101.794,220.908 98.7935,221.741 95.5,221.5C 96.4316,201.125 97.9316,180.791 100,160.5C 137.132,127.703 173.965,94.5368 210.5,61C 209.737,60.0565 208.737,59.5565 207.5,59.5C 204.721,60.3888 202.055,61.5555 199.5,63C 156.002,90.5836 112.335,117.917 68.5,145C 65.4424,145.458 62.4424,145.124 59.5,144C 41.5612,138.131 23.5612,132.465 5.5,127C 3.25279,125.723 1.25279,124.223 -0.5,122.5C -0.5,120.167 -0.5,117.833 -0.5,115.5C 5.41309,110.709 12.0798,107.209 19.5,105C 91.9439,77.6109 164.277,49.9443 236.5,22C 244.612,18.6263 250.945,20.4596 255.5,27.5 Z"/></g>
</svg>
