<svg width="107" height="58" viewBox="0 0 107 58" fill="none" xmlns="http://www.w3.org/2000/svg">
<circle cx="2" cy="2" r="2" fill="#8D9094"/>
<circle cx="27.5532" cy="2" r="2" fill="#8D9094"/>
<circle cx="53.1064" cy="2" r="2" fill="#8D9094"/>
<circle cx="78.6595" cy="2" r="2" fill="#8D9094"/>
<circle cx="104.213" cy="2" r="2" fill="#8D9094"/>
<circle cx="2" cy="19.7305" r="2" fill="#8D9094"/>
<circle cx="27.5532" cy="19.7305" r="2" fill="#8D9094"/>
<circle cx="53.1064" cy="19.7305" r="2" fill="#8D9094"/>
<circle cx="78.6595" cy="19.7305" r="2" fill="#8D9094"/>
<circle cx="104.213" cy="19.7305" r="2" fill="#8D9094"/>
<circle cx="2" cy="37.4609" r="2" fill="#8D9094"/>
<circle cx="27.5532" cy="37.4609" r="2" fill="#8D9094"/>
<circle cx="53.1064" cy="37.4609" r="2" fill="#8D9094"/>
<circle cx="78.6595" cy="37.4609" r="2" fill="#8D9094"/>
<circle cx="104.213" cy="37.4609" r="2" fill="#8D9094"/>
<circle cx="2" cy="55.1914" r="2" fill="#8D9094"/>
<circle cx="27.5532" cy="55.1914" r="2" fill="#8D9094"/>
<circle cx="53.1064" cy="55.1914" r="2" fill="#8D9094"/>
<circle cx="78.6595" cy="55.1914" r="2" fill="#8D9094"/>
<circle cx="104.213" cy="55.1914" r="2" fill="#8D9094"/>
</svg>
