<svg width="159" height="210" viewBox="0 0 159 210" fill="none" xmlns="http://www.w3.org/2000/svg">
<mask id="path-1-inside-1_64_1298" fill="white">
<path d="M78.5264 105.04H39.2637V157.06H78.5264V209.079H0V53.0195H78.5264V105.04Z"/>
</mask>
<path d="M78.5264 105.04V106.04H79.5264V105.04H78.5264ZM39.2637 105.04V104.04H38.2637V105.04H39.2637ZM39.2637 157.06H38.2637V158.06H39.2637V157.06ZM78.5264 157.06H79.5264V156.06H78.5264V157.06ZM78.5264 209.079V210.079H79.5264V209.079H78.5264ZM0 209.079H-1V210.079H0V209.079ZM0 53.0195V52.0195H-1V53.0195H0ZM78.5264 53.0195H79.5264V52.0195H78.5264V53.0195ZM78.5264 105.04V104.04H39.2637V105.04V106.04H78.5264V105.04ZM39.2637 105.04H38.2637V157.06H39.2637H40.2637V105.04H39.2637ZM39.2637 157.06V158.06H78.5264V157.06V156.06H39.2637V157.06ZM78.5264 157.06H77.5264V209.079H78.5264H79.5264V157.06H78.5264ZM78.5264 209.079V208.079H0V209.079V210.079H78.5264V209.079ZM0 209.079H1V53.0195H0H-1V209.079H0ZM0 53.0195V54.0195H78.5264V53.0195V52.0195H0V53.0195ZM78.5264 53.0195H77.5264V105.04H78.5264H79.5264V53.0195H78.5264Z" fill="#6E88A6" mask="url(#path-1-inside-1_64_1298)"/>
<mask id="path-3-outside-2_64_1298" maskUnits="userSpaceOnUse" x="77.5264" y="0" width="81" height="159" fill="black">
<rect fill="white" x="77.5264" width="81" height="159"/>
<path d="M157.053 157.06H78.5264V105.04H117.79V53.0195H78.5264V1H157.053V157.06Z"/>
</mask>
<path d="M157.053 157.06V158.06H158.053V157.06H157.053ZM78.5264 157.06H77.5264V158.06H78.5264V157.06ZM78.5264 105.04V104.04H77.5264V105.04H78.5264ZM117.79 105.04V106.04H118.79V105.04H117.79ZM117.79 53.0195H118.79V52.0195H117.79V53.0195ZM78.5264 53.0195H77.5264V54.0195H78.5264V53.0195ZM78.5264 1V0H77.5264V1H78.5264ZM157.053 1H158.053V0H157.053V1ZM157.053 157.06V156.06H78.5264V157.06V158.06H157.053V157.06ZM78.5264 157.06H79.5264V105.04H78.5264H77.5264V157.06H78.5264ZM78.5264 105.04V106.04H117.79V105.04V104.04H78.5264V105.04ZM117.79 105.04H118.79V53.0195H117.79H116.79V105.04H117.79ZM117.79 53.0195V52.0195H78.5264V53.0195V54.0195H117.79V53.0195ZM78.5264 53.0195H79.5264V1H78.5264H77.5264V53.0195H78.5264ZM78.5264 1V2H157.053V1V0H78.5264V1ZM157.053 1H156.053V157.06H157.053H158.053V1H157.053Z" fill="#6E88A6" mask="url(#path-3-outside-2_64_1298)"/>
</svg>
